<?xml version="1.0" standalone="no"?>
<!DOCTYPE svg PUBLIC "-//W3C//DTD SVG 1.1//EN" "http://www.w3.org/Graphics/SVG/1.1/DTD/svg11.dtd" >
<svg xmlns="http://www.w3.org/2000/svg">
<metadata>
This is a custom SVG webfont generated by Font Squirrel.
Copyright   : Generated in 2009 by FontLab Studio. Copyright info pending.
</metadata>
<defs>
<font id="webfont" horiz-adv-x="530" >
<font-face units-per-em="1000" ascent="750" descent="-250" />
<missing-glyph horiz-adv-x="235" />
<glyph unicode=" "  horiz-adv-x="235" />
<glyph unicode="&#x09;" horiz-adv-x="235" />
<glyph unicode="&#xa0;" horiz-adv-x="235" />
<glyph unicode="!" d="M200 0v166h144v-166h-144zM203 260l-5 440h148l-5 -440h-138z" />
<glyph unicode="&#x22;" horiz-adv-x="355" d="M325 440h-122l-2 250h129zM157 440h-122l-2 250h129z" />
<glyph unicode="#" d="M529 165h-96v-165h-116v165h-104v-165h-116v165h-96v112h96v106h-96v112h96v165h116v-165h104v165h116v-165h96v-112h-96v-106h96v-112zM317 277v106h-104v-106h104z" />
<glyph unicode="$" d="M196 -113l14 109l-144 13l4 35q76 -10 144 -15l39 298q-51 9 -81.5 19t-58.5 29.5t-40 51t-12 78.5q0 92 55 129t162 37h20l16 119h35l-16 -121l141 -14l-3 -34q-79 9 -142 14l-36 -277q57 -10 88 -19.5t60 -28.5t40.5 -50t11.5 -80q0 -97 -53.5 -142t-159.5 -45 q-22 0 -35 1l-14 -114q-35 3 -35 7zM454 179q0 32 -7 54.5t-18 36.5t-34 24t-45 15t-62 12l-38 -294h29q175 0 175 152zM100 507q0 -72 34.5 -99.5t123.5 -43.5l36 273h-16q-90 0 -134 -29t-44 -101z" />
<glyph unicode="%" d="M126 701q125 0 125 -151q0 -64 -31 -102t-94 -38t-94 39t-31 107t31 106.5t94 38.5zM404 293q63 0 94 -38.5t31 -106.5t-31 -107t-94 -39t-94 39t-31 107t31 106.5t94 38.5zM98 6l246 714l86 -30l-246 -714zM99 556q0 -37 5.5 -51.5t21.5 -14.5t21.5 14.5t5.5 51.5 t-5.5 51t-21.5 14t-21.5 -14t-5.5 -51zM377 148q0 -37 5.5 -51.5t21.5 -14.5t21.5 14.5t5.5 51.5t-5.5 51t-21.5 14t-21.5 -14t-5.5 -51z" />
<glyph unicode="&#x26;" horiz-adv-x="700" d="M323 714q99 0 151.5 -44.5t52.5 -130.5q0 -65 -29.5 -109t-102.5 -98l78 -80q20 85 24 116l130 -3q-15 -104 -50 -196l112 -104l-80 -90l-103 89q-61 -47 -110.5 -67t-124.5 -20q-109 0 -174 58t-65 163q0 126 139 205q-30 41 -40.5 69.5t-10.5 77.5q0 77 55 120.5 t148 43.5zM275 103q39 0 67 9.5t63 34.5l-153 163q-35 -21 -58.5 -51t-23.5 -60q0 -43 30 -69.5t75 -26.5zM255 530q0 -52 44 -99l14 -15q43 32 60.5 54t17.5 54q0 64 -68 64t-68 -58z" />
<glyph unicode="'" horiz-adv-x="100" d="M-18 440l-2 250h129l-5 -250h-122z" />
<glyph unicode="(" horiz-adv-x="260" d="M102 750h146q-11 -29 -26.5 -77.5t-42 -168t-26.5 -203.5q0 -167 87 -405l8 -21h-146q-11 25 -27 68t-43 156t-27 202t24.5 201t48.5 180z" />
<glyph unicode=")" horiz-adv-x="260" d="M142 -120h-146q11 29 26.5 77.5t42 168t26.5 203.5q0 167 -87 405l-8 21h146q11 -25 27 -68t43 -156t27 -202t-24.5 -201t-48.5 -180z" />
<glyph unicode="*" d="M454 499h-123l38 -120l-73 -22l-41 121l-103 -79l-47 59l105 78l-102 73l46 63l99 -69l41 117l75 -25l-38 -122h123v-74z" />
<glyph unicode="+" d="M16 230v122h189v188h122v-188h191v-122h-191v-190h-122v190h-189z" />
<glyph unicode="," horiz-adv-x="170" d="M-6 -123l52 260h144l-61 -260h-135z" />
<glyph unicode="-" horiz-adv-x="440" d="M70 215v132h300v-132h-300z" />
<glyph unicode="." horiz-adv-x="248" d="M45 0v166h144v-166h-144z" />
<glyph unicode="/" d="M56 20l283 700l128 -44l-283 -700z" />
<glyph unicode="0" d="M264 672q127 0 192 -82t65 -264q0 -181 -64.5 -259.5t-192.5 -78.5t-192.5 78.5t-64.5 259.5q0 182 65 264t192 82zM265 540q-61 0 -85.5 -47t-24.5 -167q0 -119 24.5 -162.5t85.5 -43.5t84.5 43t23.5 163q0 121 -24 167.5t-84 46.5z" />
<glyph unicode="1" d="M28 516l216 144h128v-660h-138v499l-142 -93z" />
<glyph unicode="2" d="M479 0h-428v126l137 136l59.5 60.5t40.5 46.5t30.5 49.5t7.5 44.5q0 38 -25 55t-83 17q-30 0 -69 -3.5t-63 -7.5l-23 -4l-8 126q105 26 198 26q111 0 163 -47.5t52 -141.5q0 -74 -29.5 -127.5t-109.5 -131.5l-94 -92h244v-132z" />
<glyph unicode="3" d="M54 646q115 26 195 26q127 0 179 -43.5t52 -138.5q0 -51 -19 -83.5t-58 -58.5q47 -25 68 -56t21 -93q0 -107 -53.5 -159t-171.5 -52q-44 0 -99 6q-54 6 -88 12l-34 6l13 124q112 -14 188 -14q103 0 103 74q0 70 -96 70h-133v125h133q32 0 58 25.5t26 51.5q0 70 -99 70 q-35 0 -78 -3t-69 -7l-26 -3z" />
<glyph unicode="4" d="M305 -10v106h-283v112l164 452h152l-160 -432h127v169h138v-169h61v-132h-61v-106h-138z" />
<glyph unicode="5" d="M72 661h403v-132h-279l-16 -126q64 18 96 18q110 0 164.5 -50t54.5 -156q0 -108 -59 -167.5t-167 -59.5q-103 0 -234 33l15 123q131 -24 214 -24q40 0 64.5 23.5t24.5 63.5q0 42 -24 63.5t-68 21.5q-60 0 -105 -15l-106 23z" />
<glyph unicode="6" d="M485 650l-12 -126q-102 15 -186 15q-66 0 -94.5 -35t-28.5 -106l18 6q18 6 47.5 12.5t50.5 6.5q113 0 170 -52t57 -162q0 -109 -64 -165t-178 -56q-128 0 -185.5 85t-57.5 254q0 189 66 267t199 78q84 0 198 -22zM268 297q-24 -1 -50 -5.5t-40 -8.5l-15 -4q0 -75 22 -118 t80 -43q100 0 100 91q0 88 -97 88z" />
<glyph unicode="7" d="M49 528v133h422v-157l-238 -522l-128 36l224 486v24h-280z" />
<glyph unicode="8" d="M268 672q109 0 176 -48t67 -133q0 -58 -14 -87t-58 -64q44 -37 63 -70t19 -91q0 -98 -70 -144.5t-183 -46.5q-250 0 -250 180q0 64 19.5 99.5t63.5 72.5q-42 34 -57 66.5t-15 85.5q0 85 65 132.5t174 47.5zM268 120q51 0 78 21t27 59q0 50 -59 73h-88q-60 -23 -60 -73 q0 -80 102 -80zM270 540q-93 0 -93 -70q0 -42 49 -76h88q49 34 49 76q0 70 -93 70z" />
<glyph unicode="9" d="M37 10l12 126q102 -15 186 -15q66 0 94.5 33.5t28.5 98.5l-18 -3q-18 -4 -47.5 -8.5t-50.5 -4.5q-109 0 -168 54t-59 160q0 107 65.5 164t176.5 57q243 0 243 -348q0 -97 -17 -163t-52.5 -103.5t-82.5 -53.5t-113 -16q-84 0 -198 22zM254 363q54 0 105 13q0 166 -102 166 q-47 0 -73.5 -23t-26.5 -68q0 -88 97 -88z" />
<glyph unicode=":" horiz-adv-x="230" d="M35 289v166h144v-166h-144zM35 0v166h144v-166h-144z" />
<glyph unicode=";" horiz-adv-x="241" d="M66 157l-62 -270h125l81 270h-144zM56 289v166h144v-166h-144z" />
<glyph unicode="&#x3c;" d="M410 419l-215 -110l215 -113v-140l-347 181v140l347 182v-140z" />
<glyph unicode="=" d="M21 333v122h475v-122h-475zM21 116v122h475v-122h-475z" />
<glyph unicode="&#x3e;" d="M278 309l-215 110v140l347 -182v-140l-347 -181v140z" />
<glyph unicode="?" horiz-adv-x="386" d="M401 516q0 -51 -18 -90.5t-44.5 -63t-52.5 -41.5t-44 -36t-18 -37v-38h-144v41q0 38 18 67t43 48t50.5 36.5t43.5 41.5t18 54q0 41 -14.5 57.5t-68.5 16.5q-23 0 -60 -4l-63 -10l-26 -4l-16 132q117 28 171 28q120 0 172.5 -44.5t52.5 -153.5zM80 0v166h144v-166h-144z " />
<glyph unicode="@" horiz-adv-x="985" d="M945 305v-17q0 -159 -48 -228.5t-145 -69.5q-87 0 -130 43q-86 -42 -151 -42q-94 0 -140.5 58.5t-46.5 192.5q0 65 8.5 111t29 82.5t59 55t94.5 18.5q28 0 93 -22v13h134v-200q0 -80 5 -119t15 -50t30 -11q32 0 45 34t13 134v18q0 158 -72.5 225t-233.5 67 q-162 0 -245.5 -86t-83.5 -251q0 -183 74.5 -261t254.5 -78l143 9l5 -130q-100 -10 -148 -10q-115 0 -198 23t-144.5 76.5t-91.5 145.5t-30 225q0 231 125 349.5t339 118.5q219 0 330 -108.5t111 -315.5zM482 123q40 0 93 15q-7 42 -7 102v132q-44 10 -63 10 q-53 0 -69 -27.5t-16 -112.5q0 -66 14.5 -92.5t47.5 -26.5z" />
<glyph unicode="A" horiz-adv-x="605" d="M20 0l153 690h262l150 -690h-138l-31 116h-232l-26 -116h-138zM280 563l-67 -314h177l-65 314h-45z" />
<glyph unicode="B" horiz-adv-x="605" d="M70 690h265q99 0 155.5 -42.5t56.5 -132.5q0 -66 -17 -101t-58 -61q47 -21 67.5 -56.5t20.5 -101.5q0 -99 -58 -147t-163 -48h-269v690zM332 283h-126v-156h126q44 0 65 18.5t21 60.5q0 77 -86 77zM328 563h-122v-155h123q77 0 77 82q0 73 -78 73z" />
<glyph unicode="C" horiz-adv-x="534" d="M495 139l3 -124q-119 -27 -198 -27q-151 0 -205.5 83.5t-54.5 273.5q0 196 58.5 276.5t201.5 80.5q38 0 87.5 -7t80.5 -15l31 -7l-4 -121q-121 14 -175 14q-55 0 -83.5 -17.5t-41.5 -65t-13 -138.5q0 -131 27.5 -176t114.5 -45q22 0 65 4t75 8z" />
<glyph unicode="D" horiz-adv-x="626" d="M297 0h-227v690h227q88 0 145 -19t88.5 -62.5t43.5 -102t12 -148.5q0 -95 -11 -156t-41.5 -109.5t-88.5 -70.5t-148 -22zM444 358q0 39 -1.5 64t-6.5 50t-15 39.5t-26.5 26t-40.5 16.5t-57 5h-91v-428h91q39 0 66.5 10.5t43 27.5t24 48t11 62t2.5 79z" />
<glyph unicode="E" horiz-adv-x="553" d="M70 0v690h438v-132h-302v-154h242v-129h-242v-143h302v-132h-438z" />
<glyph unicode="F" horiz-adv-x="538" d="M70 0v690h438v-132h-302v-199h242v-131h-242v-228h-136z" />
<glyph unicode="G" horiz-adv-x="595" d="M352 243v123h198v-355q-143 -23 -232 -23q-155 0 -216.5 87.5t-61.5 271.5q0 189 62 272t211 83q47 0 106 -7t95 -15l36 -7l-4 -119q-120 13 -211 13q-90 0 -121.5 -44t-31.5 -176q0 -133 29 -179t120 -46l83 4v117h-62z" />
<glyph unicode="H" horiz-adv-x="669" d="M461 0v285h-253v-285h-138v690h138v-272h253v272h138v-690h-138z" />
<glyph unicode="I" horiz-adv-x="278" d="M70 0v690h138v-690h-138z" />
<glyph unicode="J" horiz-adv-x="314" d="M243 690q0 -106 0.5 -287t0.5 -288t-48.5 -146t-165.5 -39v128q76 0 76 64v568h137z" />
<glyph unicode="K" horiz-adv-x="593" d="M414 0l-114 271l-92 -10v-261h-138v690h138v-296l90 10l112 286h159l-148 -343l152 -347h-159z" />
<glyph unicode="L" horiz-adv-x="487" d="M457 0h-387v690h138v-557h249v-133z" />
<glyph unicode="M" horiz-adv-x="848" d="M70 0v690h220l135 -496l135 496h218v-690h-138v516h-15l-131 -486h-138l-133 486h-15v-516h-138z" />
<glyph unicode="N" horiz-adv-x="701" d="M70 0v690h217l191 -516h15v516h138v-690h-210l-198 516h-15v-516h-138z" />
<glyph unicode="O" horiz-adv-x="644" d="M322 121q81 0 110.5 51t29.5 168q0 119 -30 174t-110 55t-110 -55t-30 -174q0 -117 29.5 -168t110.5 -51zM322 -12q-155 0 -218.5 85.5t-63.5 266.5q0 183 64 272.5t218 89.5t218 -89.5t64 -272.5q0 -181 -63.5 -266.5t-218.5 -85.5z" />
<glyph unicode="P" horiz-adv-x="592" d="M320 197h-112v-197h-138v690h250q242 0 242 -241q0 -121 -61.5 -186.5t-180.5 -65.5zM208 330h111q103 0 103 119q0 108 -103 108h-111v-227z" />
<glyph unicode="Q" horiz-adv-x="644" d="M456 -156l-90 146q-28 -2 -44 -2q-155 0 -218.5 85.5t-63.5 266.5q0 183 64 272.5t218 89.5t218 -89.5t64 -272.5q0 -229 -103 -305l81 -132zM322 121q81 0 110.5 51t29.5 168q0 119 -30 174t-110 55t-110 -55t-30 -174q0 -117 29.5 -168t110.5 -51z" />
<glyph unicode="R" horiz-adv-x="614" d="M340 223h-10h-122v-223h-138v690h264q124 0 182 -54t58 -175q0 -134 -100 -197l97 -264h-151zM433 459q0 100 -99 100h-126v-205h128q97 0 97 105z" />
<glyph unicode="S" d="M466 675l-11 -124q-121 16 -179 16q-88 0 -88 -60q0 -33 21.5 -50t102.5 -52q97 -41 132.5 -81.5t35.5 -125.5q0 -104 -57.5 -157t-164.5 -53q-76 0 -210 28l14 124q124 -17 195 -17q85 0 85 72q0 31 -18.5 47t-82.5 43q-116 49 -153.5 91t-37.5 129q0 96 61.5 146.5 t164.5 50.5q34 0 82 -7t78 -13z" />
<glyph unicode="T" horiz-adv-x="480" d="M-10 557v133h500v-133h-180v-557h-138v557h-182z" />
<glyph unicode="U" horiz-adv-x="638" d="M198 230q0 -57 31.5 -80.5t89.5 -23.5q121 0 121 104v460h138v-460q0 -125 -64.5 -182t-194.5 -57t-194.5 57t-64.5 182v460h138v-460z" />
<glyph unicode="V" horiz-adv-x="613" d="M448 690h145l-160 -690h-255l-158 690h145l118 -558h45z" />
<glyph unicode="W" horiz-adv-x="941" d="M24 690h145l104 -548h15l104 548h157l104 -548h15l104 548h145l-154 -690h-205l-88 487l-87 -487h-205z" />
<glyph unicode="X" horiz-adv-x="581" d="M168 690l123 -241l122 241h153l-183 -348l183 -342h-153l-122 237l-123 -237h-153l186 342l-186 348h153z" />
<glyph unicode="Y" horiz-adv-x="571" d="M356 294v-294h-138v295l-208 395h153l123 -241l122 241h153z" />
<glyph unicode="Z" horiz-adv-x="570" d="M60 557v133h450v-133l-273 -409v-15h273v-133h-450v133l273 409v15h-273z" />
<glyph unicode="[" horiz-adv-x="300" d="M281 749v-132h-115v-608h115v-132h-252l-1 872h253z" />
<glyph unicode="\" horiz-adv-x="833" d="M643 0h-149l-308 702h150z" />
<glyph unicode="]" horiz-adv-x="300" d="M-69 617v132h253l-1 -872h-252v132h115v608h-115z" />
<glyph unicode="^" d="M379 439l-110 215l-113 -215h-140l181 347h140l182 -347h-140z" />
<glyph unicode="_" horiz-adv-x="520" d="M27 15h428v-122h-428v122z" />
<glyph unicode="`" horiz-adv-x="545" d="M136 774l256 -92l-47 -122l-257 88z" />
<glyph unicode="a" horiz-adv-x="528" d="M456 339v-185q0 -29 6 -38.5t26 -13.5l-4 -114q-60 0 -87 7.5t-55 26.5q-84 -34 -153 -34q-73 0 -111 43.5t-38 120.5q0 80 42.5 114t131.5 40l108 7v25q0 20 -14 32.5t-36 12.5q-33 0 -81.5 -2.5t-80.5 -5.5l-32 -3l-4 117q133 22 206 22q88 0 132 -39.5t44 -132.5z M322 211l-91 -4q-56 -3 -56 -51q0 -53 41 -53q18 0 44 3q26 4 44 8l18 4v93z" />
<glyph unicode="b" horiz-adv-x="546" d="M309 511q105 0 153.5 -58t48.5 -198q0 -156 -56 -211.5t-193 -55.5q-21 0 -70 4q-49 2 -87 6l-38 4v698h134v-212q64 23 108 23zM262 109q67 0 90 31.5t23 114.5q0 72 -21.5 102t-62.5 30l-90 -8v-265q46 -5 61 -5z" />
<glyph unicode="c" horiz-adv-x="436" d="M246 511q26 0 66 -5.5t67 -10.5l27 -5l-4 -115q-79 8 -117 8q-70 0 -92 -27t-22 -101q0 -82 22.5 -110.5t92.5 -28.5l116 8l4 -115q-107 -21 -163 -21q-111 0 -159.5 62.5t-48.5 204.5q0 133 50 194.5t161 61.5z" />
<glyph unicode="d" horiz-adv-x="551" d="M484 700v-700h-134v20q-69 -31 -120 -31q-109 0 -152 64t-43 202q0 133 51.5 194.5t155.5 61.5q16 0 43 -3.5t46 -6.5l19 -3v202h134zM253 113q39 1 97 14v254q-55 9 -98 9q-81 0 -81 -135q0 -77 17.5 -109t64.5 -33z" />
<glyph unicode="e" horiz-adv-x="507" d="M271 111q82 0 185 9l2 -104q-115 -28 -208 -28q-113 0 -164 60t-51 195q0 268 221 268q218 0 218 -225l-10 -94h-294q1 -43 24 -62t77 -19zM169 295h173q0 53 -19.5 75t-66.5 22t-66.5 -23t-20.5 -74z" />
<glyph unicode="f" horiz-adv-x="343" d="M205 378v-378h-134v378h-54v121h54v23q0 107 32 147.5t114 40.5q15 0 43.5 -3t49.5 -7l21 -3l-2 -109q-44 2 -76 2q-28 0 -38 -15.5t-10 -53.5v-22h121v-121h-121z" />
<glyph unicode="g" horiz-adv-x="538" d="M276 -240q-120 0 -180.5 31.5t-60.5 117.5q0 65 71 120q-36 25 -36 75q0 11 10 31q10 21 20 35l9 14q-68 49 -68 149q0 91 57.5 134t152.5 43q20 0 45 -3q24 -3 40 -7l16 -3l154 3v-107h-63q17 -30 17 -60q0 -100 -51 -138t-160 -38q-23 0 -41 4q-10 -26 -10 -39 q0 -20 17.5 -26.5t79.5 -6.5q126 0 172 -33t46 -118q0 -91 -66 -134.5t-171 -43.5zM284 -27l-90 7q-27 -27 -27 -57q0 -43 110 -43q101 0 101 50q0 27 -18 34.5t-76 8.5zM249 269q42 0 60.5 14.5t18.5 49.5q0 33 -18.5 48t-59.5 15q-40 0 -57.5 -15t-17.5 -48q0 -34 17 -49 t57 -15z" />
<glyph unicode="h" horiz-adv-x="561" d="M201 0h-134v700h134v-215q77 26 124 26q100 0 138 -60.5t38 -188.5v-262h-134v262q0 63 -14 93.5t-56 30.5q-33 0 -96 -12v-374z" />
<glyph unicode="i" horiz-adv-x="268" d="M67 0v499h134v-499h-134zM67 564v137h134v-137h-134z" />
<glyph unicode="j" horiz-adv-x="271" d="M70 6v493h134v-494q0 -102 -35.5 -150.5t-142.5 -102.5l-60 111q67 41 85.5 64t18.5 79zM70 573v137h134v-137h-134z" />
<glyph unicode="k" horiz-adv-x="518" d="M201 0h-134v700h134v-391l51 10l99 180h150l-129 -236l136 -263h-151l-102 188l-54 -10v-178z" />
<glyph unicode="l" horiz-adv-x="268" d="M67 0v700h134v-700h-134z" />
<glyph unicode="m" horiz-adv-x="847" d="M201 0h-134v499h133v-24q33 16 68 27q31 9 50 9q81 0 122 -41q110 41 171 41q99 0 137.5 -58.5t38.5 -191.5v-261h-134v206q0 115 -10 142q-13 38 -60 38q-40 0 -93 -19q4 -69 4 -108v-259h-134v257q0 73 -13 101t-57 28q-15 0 -37 -4t-37 -8l-15 -5v-369z" />
<glyph unicode="n" horiz-adv-x="561" d="M201 0h-134v499h134v-22q77 34 124 34q100 0 138 -60.5t38 -189.5v-261h-134v261q0 64 -14 94.5t-56 30.5q-15 0 -39 -4t-40 -8l-17 -5v-369z" />
<glyph unicode="o" d="M265 511q124 0 177 -68.5t53 -192.5t-53 -193t-177 -69t-177 69t-53 193t53 192.5t177 68.5zM265 109q53 0 73.5 34t20.5 107t-20.5 106.5t-73.5 33.5t-73.5 -33.5t-20.5 -106.5t20.5 -107t73.5 -34z" />
<glyph unicode="p" horiz-adv-x="546" d="M67 -210v709h134v-23q64 35 113 35q102 0 149.5 -58.5t47.5 -198.5q0 -153 -53 -209.5t-174 -56.5q-37 0 -83 8v-206h-134zM288 388q-34 0 -87 -19v-255q45 -5 73 -5q59 0 80 32t21 113q0 134 -87 134z" />
<glyph unicode="q" horiz-adv-x="536" d="M263 -12q-228 0 -228 256q0 267 228 267q26 0 77.5 -3t89.5 -6l39 -3v-710h-134v211q-26 -12 -72 -12zM263 390q-94 0 -94 -146q0 -135 94 -135q15 0 33 4.5t28 8.5l11 4v262q-47 2 -72 2z" />
<glyph unicode="r" horiz-adv-x="360" d="M67 0v499h134v-47q60 44 139 59v-144q-39 -8 -74 -18.5t-50 -17.5l-15 -7v-324h-134z" />
<glyph unicode="s" horiz-adv-x="497" d="M435 486l-2 -112q-124 16 -182 16q-42 0 -56 -9t-14 -30q0 -17 18 -24.5t76 -16.5q100 -16 137.5 -50t37.5 -110q0 -162 -202 -162q-33 0 -82 6q-50 6 -82 12l-32 7l4 113q128 -17 179 -17q46 0 63.5 9t17.5 29q0 17 -15 25t-66 17q-104 18 -146 50t-42 109 q0 82 54.5 122.5t139.5 40.5q32 0 80.5 -6.5t80.5 -12.5z" />
<glyph unicode="t" horiz-adv-x="350" d="M331 378h-123v-189q0 -30 1.5 -42.5t11 -21.5t29.5 -9l76 2l6 -115q-67 -15 -102 -15q-90 0 -123 40.5t-33 149.5v200h-59v121h59v140h134v-140h123v-121z" />
<glyph unicode="u" horiz-adv-x="561" d="M360 499h134v-499h-134v21q-78 -33 -124 -33q-105 0 -140.5 57t-35.5 193v261h134v-261q0 -76 11.5 -102.5t58.5 -26.5q15 0 39 5q25 4 41 8l16 4v373z" />
<glyph unicode="v" horiz-adv-x="484" d="M8 499h139l82 -388h27l84 388h136l-120 -499h-228z" />
<glyph unicode="w" horiz-adv-x="750" d="M12 499h132l61 -378h24l76 369h140l76 -369h24l61 378h132l-93 -499h-215l-56 306l-57 -306h-212z" />
<glyph unicode="x" horiz-adv-x="467" d="M10 499h143l80 -154l81 154h143l-137 -250l137 -249h-143l-81 153l-80 -153h-143l136 249z" />
<glyph unicode="y" horiz-adv-x="485" d="M8 499h132l91 -368h23l91 368h132l-124 -499l-51 -209h-132l51 209h-90z" />
<glyph unicode="z" horiz-adv-x="477" d="M53 379v121h371v-121l-210 -258h210v-121h-371v121l210 258h-210z" />
<glyph unicode="{" horiz-adv-x="339" d="M263 172q0 -14 -3.5 -57t-3.5 -60q0 -31 13 -42t58 -15v-132q-113 4 -164.5 44t-51.5 128q0 21 3.5 65.5t3.5 55.5q0 37 -20 60t-74 38v112q55 14 74.5 34t19.5 56q0 13 -3.5 60t-3.5 67q0 94 50.5 132.5t165.5 42.5v-132q-46 -4 -58.5 -13.5t-12.5 -39.5 q0 -17 3.5 -65.5t3.5 -62.5q0 -59 -22 -87.5t-78 -46.5q55 -18 77.5 -50t22.5 -92z" />
<glyph unicode="|" d="M191 -230v980h138v-980h-138z" />
<glyph unicode="}" horiz-adv-x="339" d="M76 451q0 14 3.5 57t3.5 60q0 31 -13 42t-58 15v132q113 -4 164.5 -44t51.5 -128q0 -21 -3.5 -65.5t-3.5 -55.5q0 -37 20 -60t74 -38v-112q-55 -14 -74.5 -34t-19.5 -56q0 -13 3.5 -60t3.5 -67q0 -94 -50.5 -132.5t-165.5 -42.5v132q46 4 58.5 13.5t12.5 39.5 q0 17 -3.5 65.5t-3.5 62.5q0 59 22 87.5t78 46.5q-55 18 -77.5 50t-22.5 92z" />
<glyph unicode="&#xa2;" horiz-adv-x="437" d="M194 -75v104q-182 13 -182 221q0 205 182 220v101h112v-106l77 -10l-4 -115q-79 3 -117 3q-65 0 -89.5 -19t-24.5 -74t24.5 -74.5t90.5 -19.5l116 4l4 -115q-37 -6 -77 -11v-109h-112z" />
<glyph unicode="&#xa3;" horiz-adv-x="570" d="M473 655v-135q-48 19 -81 19q-29 0 -41 -1.5t-25.5 -10t-18 -27.5t-6.5 -54h122v-124h-122q0 -33 -0.5 -99t-0.5 -99h114l69 16l21 -122l-81 -17q-51 0 -154 -0.5t-155 -0.5v124h54v200h-31v122h31v55q0 102 40.5 140.5t116.5 38.5q17 0 54 -6t65 -12z" />
<glyph unicode="&#xa5;" horiz-adv-x="540" d="M48 291v112h92l-145 257h153l123 -211l122 211h153l-143 -257h89v-112h-151v-18v-17h151v-112h-151v-144h-138v144h-155v112h155v17v18h-155z" />
<glyph unicode="&#xa6;" d="M191 750h138v-422h-138v422zM191 190h138v-420h-138v420z" />
<glyph unicode="&#xa7;" d="M421 605l-2 -32q-106 13 -154 13q-140 0 -140 -109q0 -35 8 -57t30 -35t44.5 -19t65.5 -13q89 -14 127.5 -41.5t38.5 -98.5q0 -63 -38 -126q35 -30 35 -94q0 -158 -173 -158q-27 0 -69 3.5t-70 6.5l-29 3l3 32q110 -14 165 -14q138 0 138 126q0 30 -8 49t-29.5 29.5 t-39.5 15t-58 10.5q-49 8 -76 15.5t-53 23.5t-36.5 44t-10.5 71q0 59 44 111q-44 32 -44 114q0 76 44.5 109.5t130.5 33.5q63 0 156 -13zM266 321q-79 13 -107 26q-14 -17 -24 -44.5t-10 -50.5q0 -35 8 -57t30 -35t44.5 -19t65.5 -13q75 -12 102 -25q12 18 20.5 49.5 t8.5 57.5q0 57 -32.5 78.5t-105.5 32.5z" />
<glyph unicode="&#xa8;" horiz-adv-x="833" d="M38 582v148h139v-148h-139zM252 582v148h139v-148h-139z" />
<glyph unicode="&#xa9;" d="M10 434q0 111 73 188.5t182 77.5t182.5 -77.5t73.5 -188.5t-73.5 -188t-182.5 -77t-182 77t-73 188zM42 434q0 -98 63.5 -165.5t159.5 -67.5t160 67.5t64 165.5t-64 166t-160 68t-159.5 -68t-63.5 -166zM338 321l1 -32q-43 -8 -74 -8q-62 0 -85.5 38.5t-23.5 113.5 q0 76 23 115t86 39q38 0 74 -7l-1 -32q-41 7 -73 7q-49 0 -63 -28t-14 -94q0 -62 16 -91t61 -29z" />
<glyph unicode="&#xaa;" horiz-adv-x="518" d="M346 571v-134q6 -20 37 -23l-2 -28q-32 1 -54 22q-63 -22 -119 -22q-31 0 -50.5 22t-19.5 58q0 70 75 76l102 7v23q0 32 -12 43.5t-40 11.5l-104 -7l-2 31q69 8 106 8q43 0 63 -20.5t20 -67.5zM315 520l-97 -6q-25 -2 -36 -13.5t-11 -36.5q0 -46 40 -46q20 0 46 4t42 8 l16 5v85z" />
<glyph unicode="&#xab;" horiz-adv-x="833" d="M387 380l-135 -106l135 -117v-41q-133 113 -167 138v36l167 129v-39zM594 380l-135 -106l135 -117v-41q-133 113 -167 138v36l167 129v-39z" />
<glyph unicode="&#xad;" horiz-adv-x="440" d="M70 215v132h300v-132h-300z" />
<glyph unicode="&#xae;" d="M10 434q0 111 73 188.5t182 77.5t182.5 -77.5t73.5 -188.5t-73.5 -188t-182.5 -77t-182 77t-73 188zM42 434q0 -98 63.5 -165.5t159.5 -67.5t160 67.5t64 165.5t-64 166t-160 68t-159.5 -68t-63.5 -166zM340 276l-66 131h-79v-131h-32v315h91q64 0 89.5 -20t25.5 -70 q0 -76 -59 -91l65 -134h-35zM275 439q34 0 48 13.5t14 48.5q0 33 -19 45.5t-61 12.5h-62v-120h80z" />
<glyph unicode="&#xb0;" d="M94 564q0 67 41.5 108.5t108.5 41.5t108.5 -41.5t41.5 -108.5t-41.5 -108t-108.5 -41t-108.5 41t-41.5 108zM169 564q0 -34 20.5 -55t54.5 -21t55.5 21t21.5 55t-21.5 55.5t-55.5 21.5t-54.5 -21.5t-20.5 -55.5z" />
<glyph unicode="&#xb1;" d="M16 300v122h189v118h122v-118h191v-122h-191v-110h-122v110h-189zM16 152h502v-122h-502v122z" />
<glyph unicode="&#xb4;" horiz-adv-x="833" d="M78 682l256 92l48 -126l-257 -88z" />
<glyph unicode="&#xb5;" d="M55 -220v720h134v-288q1 -58 14 -80.5t56 -22.5q15 0 39 4.5t40 8.5l17 4v373h134v-499h-134v21q-78 -33 -124 -33q-22 0 -42 3v-211h-134z" />
<glyph unicode="&#xb6;" d="M358 0v567h-65v-567h-133v306h-7q-84 0 -135 54.5t-51 141.5t51 142.5t135 55.5h398v-133h-60v-567h-133z" />
<glyph unicode="&#xb8;" horiz-adv-x="833" d="M478 -107q0 -36 -12.5 -50t-48.5 -14q-12 0 -31 4l2 26q9 -2 28 -2t23.5 7t4.5 29q0 21 -4 26.5t-24 5.5h-24v76h33v-48q31 -1 42 -13.5t11 -46.5z" />
<glyph unicode="&#xba;" horiz-adv-x="526" d="M259 659q58 0 85.5 -32.5t27.5 -102.5q0 -138 -113 -138q-115 0 -115 138q0 135 115 135zM259 418q43 0 61 24.5t18 81.5t-18 80t-61 23t-62 -23.5t-19 -79.5q0 -57 19 -81.5t62 -24.5z" />
<glyph unicode="&#xbb;" horiz-adv-x="833" d="M582 274l-135 106v39l167 -129v-36q-34 -25 -167 -138v41zM375 274l-135 106v39l167 -129v-36q-34 -25 -167 -138v41z" />
<glyph unicode="&#xc0;" horiz-adv-x="604" d="M24 0l153 690h262l150 -690h-138l-31 116h-232l-26 -116h-138zM284 563l-67 -314h177l-65 314h-45zM178 974l256 -92l-47 -122l-257 88z" />
<glyph unicode="&#xc1;" horiz-adv-x="604" d="M24 0l153 690h262l150 -690h-138l-31 116h-232l-26 -116h-138zM284 563l-67 -314h177l-65 314h-45zM140 882l256 92l48 -126l-257 -88z" />
<glyph unicode="&#xc2;" horiz-adv-x="604" d="M24 0l153 690h262l150 -690h-138l-31 116h-232l-26 -116h-138zM284 563l-67 -314h177l-65 314h-45zM120 770l131 182h108l132 -182h-132l-53 78l-54 -78h-132z" />
<glyph unicode="&#xc3;" horiz-adv-x="604" d="M24 0l153 690h262l150 -690h-138l-31 116h-232l-26 -116h-138zM284 563l-67 -314h177l-65 314h-45zM436 902l22 -17q-51 -55 -83 -55t-69.5 27t-59.5 27q-26 0 -69 -41l-25 18q56 54 95 54q33 0 71 -26.5t57 -26.5t61 40z" />
<glyph unicode="&#xc4;" horiz-adv-x="604" d="M24 0l153 690h262l150 -690h-138l-31 116h-232l-26 -116h-138zM284 563l-67 -314h177l-65 314h-45zM129 782v148h139v-148h-139zM343 782v148h139v-148h-139z" />
<glyph unicode="&#xc5;" horiz-adv-x="604" d="M24 0l153 690h262l150 -690h-138l-31 116h-232l-26 -116h-138zM284 563l-67 -314h177l-65 314h-45zM212 848q0 40 27 67t67 27t67 -27t27 -67t-27 -67t-67 -27t-67 27t-27 67zM246 848q0 -26 17.5 -44t43.5 -18q25 0 42.5 18t17.5 44t-17.5 43.5t-42.5 17.5 q-26 0 -43.5 -17.5t-17.5 -43.5z" />
<glyph unicode="&#xc6;" horiz-adv-x="898" d="M428 0v116h-213l-29 -116h-138l184 690h634v-132h-302v-143h242v-131h-242v-152h302v-132h-438zM323 536l-74 -287h179v287h-105z" />
<glyph unicode="&#xc7;" horiz-adv-x="537" d="M495 139l3 -124q-119 -27 -198 -27q-151 0 -205.5 83.5t-54.5 273.5q0 196 58.5 276.5t201.5 80.5q38 0 87.5 -7t80.5 -15l31 -7l-4 -121q-121 14 -175 14q-55 0 -83.5 -17.5t-41.5 -65t-13 -138.5q0 -131 27.5 -176t114.5 -45q22 0 65 4t75 8zM341 -107q0 -36 -12.5 -50 t-48.5 -14q-12 0 -31 4l2 26q9 -2 28 -2t23.5 7t4.5 29q0 21 -4 26.5t-24 5.5h-24v76h33v-48q31 -1 42 -13.5t11 -46.5z" />
<glyph unicode="&#xc8;" horiz-adv-x="572" d="M103 0v700h409v-34h-373v-289h313v-34h-313v-309h373v-34h-409zM219 932l192 -96l-15 -27l-193 92z" />
<glyph unicode="&#xc9;" horiz-adv-x="572" d="M75 0v690h438v-132h-302v-154h242v-129h-242v-143h302v-132h-438zM156 882l256 92l48 -126l-257 -88z" />
<glyph unicode="&#xca;" horiz-adv-x="572" d="M75 0v690h438v-132h-302v-154h242v-129h-242v-143h302v-132h-438zM127 770l131 182h108l132 -182h-132l-53 78l-54 -78h-132z" />
<glyph unicode="&#xcb;" horiz-adv-x="572" d="M75 0v690h438v-132h-302v-154h242v-129h-242v-143h302v-132h-438zM136 782v148h139v-148h-139zM350 782v148h139v-148h-139z" />
<glyph unicode="&#xcc;" horiz-adv-x="226" d="M70 0v690h138v-690h-138zM-5 974l256 -92l-47 -122l-257 88z" />
<glyph unicode="&#xcd;" horiz-adv-x="226" d="M70 0v690h138v-690h-138zM-63 882l256 92l48 -126l-257 -88z" />
<glyph unicode="&#xce;" horiz-adv-x="231" d="M72 0v690h138v-690h-138zM-70 770l131 182h108l132 -182h-132l-53 78l-54 -78h-132z" />
<glyph unicode="&#xcf;" horiz-adv-x="226" d="M70 0v690h138v-690h-138zM-63 782v148h139v-148h-139zM151 782v148h139v-148h-139z" />
<glyph unicode="&#xd0;" horiz-adv-x="626" d="M16 279v132h320v-132h-320zM297 0h-227v690h227q88 0 145 -19t88.5 -62.5t43.5 -102t12 -148.5q0 -95 -11 -156t-41.5 -109.5t-88.5 -70.5t-148 -22zM444 358q0 39 -1.5 64t-6.5 50t-15 39.5t-26.5 26t-40.5 16.5t-57 5h-91v-428h91q39 0 66.5 10.5t43 27.5t24 48t11 62 t2.5 79z" />
<glyph unicode="&#xd1;" horiz-adv-x="687" d="M59 0v690h217l191 -516h15v516h138v-690h-210l-198 516h-15v-516h-138zM473 902l22 -17q-51 -55 -83 -55t-69.5 27t-59.5 27q-26 0 -69 -41l-25 18q56 54 95 54q34 0 72 -26.5t56 -26.5t61 40z" />
<glyph unicode="&#xd2;" horiz-adv-x="656" d="M328 121q81 0 110.5 51t29.5 168q0 119 -30 174t-110 55t-110 -55t-30 -174q0 -117 29.5 -168t110.5 -51zM328 -12q-155 0 -218.5 85.5t-63.5 266.5q0 183 64 272.5t218 89.5t218 -89.5t64 -272.5q0 -181 -63.5 -266.5t-218.5 -85.5zM210 974l256 -92l-47 -122l-257 88z " />
<glyph unicode="&#xd3;" horiz-adv-x="656" d="M328 121q81 0 110.5 51t29.5 168q0 119 -30 174t-110 55t-110 -55t-30 -174q0 -117 29.5 -168t110.5 -51zM328 -12q-155 0 -218.5 85.5t-63.5 266.5q0 183 64 272.5t218 89.5t218 -89.5t64 -272.5q0 -181 -63.5 -266.5t-218.5 -85.5zM152 882l256 92l48 -126l-257 -88z " />
<glyph unicode="&#xd4;" horiz-adv-x="656" d="M328 121q81 0 110.5 51t29.5 168q0 119 -30 174t-110 55t-110 -55t-30 -174q0 -117 29.5 -168t110.5 -51zM328 -12q-155 0 -218.5 85.5t-63.5 266.5q0 183 64 272.5t218 89.5t218 -89.5t64 -272.5q0 -181 -63.5 -266.5t-218.5 -85.5zM143 770l131 182h108l132 -182h-132 l-53 78l-54 -78h-132z" />
<glyph unicode="&#xd5;" horiz-adv-x="656" d="M328 121q81 0 110.5 51t29.5 168q0 119 -30 174t-110 55t-110 -55t-30 -174q0 -117 29.5 -168t110.5 -51zM328 -12q-155 0 -218.5 85.5t-63.5 266.5q0 183 64 272.5t218 89.5t218 -89.5t64 -272.5q0 -181 -63.5 -266.5t-218.5 -85.5zM459 902l22 -17q-51 -55 -83 -55 t-69.5 27t-59.5 27q-26 0 -69 -41l-25 18q56 54 95 54q34 0 72 -26.5t56 -26.5t61 40z" />
<glyph unicode="&#xd6;" horiz-adv-x="656" d="M328 121q81 0 110.5 51t29.5 168q0 119 -30 174t-110 55t-110 -55t-30 -174q0 -117 29.5 -168t110.5 -51zM328 -12q-155 0 -218.5 85.5t-63.5 266.5q0 183 64 272.5t218 89.5t218 -89.5t64 -272.5q0 -181 -63.5 -266.5t-218.5 -85.5zM152 782v148h139v-148h-139zM366 782 v148h139v-148h-139z" />
<glyph unicode="&#xd7;" d="M248 558l173 -174l174 174l87 -86l-174 -174l174 -174l-87 -86l-174 173l-173 -173l-86 86l173 174l-173 174z" />
<glyph unicode="&#xd8;" horiz-adv-x="656" d="M57 -74l63 135q-73 81 -73 279q0 183 64 272.5t218 89.5q47 0 86 -9l56 121l125 -46l-64 -138q79 -85 79 -290q0 -181 -63.5 -266.5t-218.5 -85.5q-47 0 -92 10l-59 -127zM189 340q0 -73 9 -112l158 339q-18 2 -27 2q-25 0 -49 -7q-51 -16 -71 -69.5t-20 -152.5zM329 121 q81 0 110.5 51t29.5 168q0 84 -12 129l-162 -346q22 -2 34 -2z" />
<glyph unicode="&#xd9;" horiz-adv-x="642" d="M203 230q0 -57 31.5 -80.5t89.5 -23.5q121 0 121 104v460h138v-460q0 -125 -64.5 -182t-194.5 -57t-194.5 57t-64.5 182v460h138v-460zM208 974l256 -92l-47 -122l-257 88z" />
<glyph unicode="&#xda;" horiz-adv-x="642" d="M203 230q0 -57 31.5 -80.5t89.5 -23.5q121 0 121 104v460h138v-460q0 -125 -64.5 -182t-194.5 -57t-194.5 57t-64.5 182v460h138v-460zM150 882l256 92l48 -126l-257 -88z" />
<glyph unicode="&#xdb;" horiz-adv-x="642" d="M203 230q0 -57 31.5 -80.5t89.5 -23.5q121 0 121 104v460h138v-460q0 -125 -64.5 -182t-194.5 -57t-194.5 57t-64.5 182v460h138v-460zM141 770l131 182h108l132 -182h-132l-53 78l-54 -78h-132z" />
<glyph unicode="&#xdc;" horiz-adv-x="642" d="M203 230q0 -57 31.5 -80.5t89.5 -23.5q121 0 121 104v460h138v-460q0 -125 -64.5 -182t-194.5 -57t-194.5 57t-64.5 182v460h138v-460zM151 782v148h139v-148h-139zM365 782v148h139v-148h-139z" />
<glyph unicode="&#xdd;" horiz-adv-x="540" d="M341 294v-294h-138v295l-208 395h153l123 -241l122 241h153zM79 882l256 92l48 -126l-257 -88z" />
<glyph unicode="&#xde;" d="M271 233q51 0 78 31.5t27 88.5q0 107 -105 107h-111v-227h111zM272 99h-112v-99h-138v690h138v-98h112q244 0 244 -239q0 -121 -62.5 -187.5t-181.5 -66.5z" />
<glyph unicode="&#xdf;" horiz-adv-x="833" d="M249 0h-36v532q0 104 31.5 141t121.5 37q103 0 146.5 -32t43.5 -103q0 -43 -15 -65t-49 -35l-17 -6.5l-14 -5.5l-11.5 -4.5t-9.5 -4t-6.5 -4t-5 -4t-3 -4.5t-2 -5.5t-0.5 -6.5q0 -10 11 -18.5t73 -45.5l33 -19.5l28.5 -17.5l22.5 -14t19 -13t13.5 -12t10.5 -12.5t5 -12 t2 -14.5q0 -71 -9 -116t-34.5 -79.5t-72.5 -49.5t-122 -15l-78 4l4 34q57 -4 74 -4q67 0 108 13t61 45t25.5 68t5.5 100q0 12 -26.5 31t-94.5 58q-67 38 -82 52t-15 38q0 15 3 24.5t12 16.5t15.5 10.5t25.5 10.5t31 12q32 14 39 25t7 46q0 56 -34.5 78.5t-117.5 22.5 q-72 0 -94.5 -29.5t-22.5 -127.5v-519z" />
<glyph unicode="&#xe0;" horiz-adv-x="536" d="M437 339v-185q0 -29 6 -38.5t26 -13.5l-4 -114q-60 0 -87 7.5t-55 26.5q-84 -34 -153 -34q-73 0 -111 43.5t-38 120.5q0 80 42.5 114t131.5 40l108 7v25q0 20 -14 32.5t-36 12.5q-33 0 -81.5 -2.5t-80.5 -5.5l-32 -3l-4 117q133 22 206 22q88 0 132 -39.5t44 -132.5z M303 211l-91 -4q-56 -3 -56 -51q0 -53 41 -53q18 0 44.5 3.5t44.5 7.5l17 4v93zM125 774l256 -92l-47 -122l-257 88z" />
<glyph unicode="&#xe1;" horiz-adv-x="536" d="M437 154v185q0 93 -44 132.5t-132 39.5q-32 0 -83.5 -5.5t-87.5 -11.5l-35 -5l4 -117q120 11 194 11q22 0 36 -12.5t14 -32.5v-25l-108 -7q-89 -6 -131.5 -40t-42.5 -114q0 -77 38 -120.5t111 -43.5q31 0 69 8q38 10 61 18l23 8q28 -19 55 -26.5t87 -7.5l4 114 q-20 4 -26 13.5t-6 38.5zM212 207l91 4v-93q-65 -15 -106 -15t-41 53q0 48 56 51zM127 682l256 92l48 -126l-257 -88z" />
<glyph unicode="&#xe2;" horiz-adv-x="536" d="M437 154v185q0 93 -44 132.5t-132 39.5q-32 0 -83.5 -5.5t-87.5 -11.5l-35 -5l4 -117q120 11 194 11q22 0 36 -12.5t14 -32.5v-25l-108 -7q-89 -6 -131.5 -40t-42.5 -114q0 -77 38 -120.5t111 -43.5q31 0 69 8q38 10 61 18l23 8q28 -19 55 -26.5t87 -7.5l4 114 q-20 4 -26 13.5t-6 38.5zM212 207l91 4v-93q-65 -15 -106 -15t-41 53q0 48 56 51zM60 570l131 182h108l132 -182h-132l-53 78l-54 -78h-132z" />
<glyph unicode="&#xe3;" horiz-adv-x="536" d="M437 154v185q0 93 -44 132.5t-132 39.5q-32 0 -83.5 -5.5t-87.5 -11.5l-35 -5l4 -117q120 11 194 11q22 0 36 -12.5t14 -32.5v-25l-108 -7q-89 -6 -131.5 -40t-42.5 -114q0 -77 38 -120.5t111 -43.5q31 0 69 8q38 10 61 18l23 8q28 -19 55 -26.5t87 -7.5l4 114 q-20 4 -26 13.5t-6 38.5zM212 207l91 4v-93q-65 -15 -106 -15t-41 53q0 48 56 51zM376 702l22 -17q-51 -55 -83 -55t-69.5 27t-59.5 27q-26 0 -69 -41l-25 18q56 54 95 54q33 0 71 -26.5t57 -26.5t61 40z" />
<glyph unicode="&#xe4;" horiz-adv-x="536" d="M437 154v185q0 93 -44 132.5t-132 39.5q-32 0 -83.5 -5.5t-87.5 -11.5l-35 -5l4 -117q120 11 194 11q22 0 36 -12.5t14 -32.5v-25l-108 -7q-89 -6 -131.5 -40t-42.5 -114q0 -77 38 -120.5t111 -43.5q31 0 69 8q38 10 61 18l23 8q28 -19 55 -26.5t87 -7.5l4 114 q-20 4 -26 13.5t-6 38.5zM212 207l91 4v-93q-65 -15 -106 -15t-41 53q0 48 56 51zM67 582v148h139v-148h-139zM281 582v148h139v-148h-139z" />
<glyph unicode="&#xe5;" horiz-adv-x="536" d="M437 154v185q0 93 -44 132.5t-132 39.5q-32 0 -83.5 -5.5t-87.5 -11.5l-35 -5l4 -117q120 11 194 11q22 0 36 -12.5t14 -32.5v-25l-108 -7q-89 -6 -131.5 -40t-42.5 -114q0 -77 38 -120.5t111 -43.5q31 0 69 8q38 10 61 18l23 8q28 -19 55 -26.5t87 -7.5l4 114 q-20 4 -26 13.5t-6 38.5zM212 207l91 4v-93q-65 -15 -106 -15t-41 53q0 48 56 51zM151 648q0 40 27 67t67 27t67 -27t27 -67t-27 -67t-67 -27q-41 0 -67.5 27t-26.5 67zM185 648q0 -26 17.5 -44t43.5 -18q25 0 42.5 18t17.5 44t-17.5 43.5t-42.5 17.5q-26 0 -43.5 -17.5 t-17.5 -43.5z" />
<glyph unicode="&#xe6;" horiz-adv-x="828" d="M569 111q82 0 185 9l2 -104q-115 -28 -208 -28q-102 0 -153 48l-23 -11q-84 -37 -171 -37q-73 0 -111 43.5t-38 120.5q0 80 43.5 114.5t130.5 39.5l108 7v25q0 20 -14 32.5t-36 12.5q-33 0 -81.5 -2.5t-80.5 -5.5l-32 -3l-4 117q133 22 206 22q86 0 129 -37q52 37 133 37 q218 0 218 -225l-10 -94h-294q1 -43 24 -62t77 -19zM228 103q18 0 44 3q26 4 44 8l18 4q0 16 -0.5 47t-0.5 46l-90 -4q-56 -3 -56 -51q0 -53 41 -53zM468 295h172q0 53 -19.5 75t-66.5 22q-48 0 -67 -23t-19 -74z" />
<glyph unicode="&#xe7;" horiz-adv-x="436" d="M246 511q26 0 66 -5.5t67 -10.5l27 -5l-4 -115q-79 8 -117 8q-70 0 -92 -27t-22 -101q0 -82 22.5 -110.5t92.5 -28.5l116 8l4 -115q-107 -21 -163 -21q-111 0 -159.5 62.5t-48.5 204.5q0 133 50 194.5t161 61.5zM305 -107q0 -36 -12.5 -50t-48.5 -14q-12 0 -31 4l2 26 q9 -2 28 -2t23.5 7t4.5 29q0 21 -4 26.5t-24 5.5h-24v76h33v-48q31 -1 42 -13.5t11 -46.5z" />
<glyph unicode="&#xe8;" horiz-adv-x="497" d="M269 111q82 0 185 9l2 -104q-115 -28 -208 -28q-113 0 -164 60t-51 195q0 268 221 268q218 0 218 -225l-10 -94h-294q1 -43 24 -62t77 -19zM167 295h173q0 53 -19.5 75t-66.5 22t-66.5 -23t-20.5 -74zM117 774l256 -92l-47 -122l-257 88z" />
<glyph unicode="&#xe9;" horiz-adv-x="497" d="M269 111q82 0 185 9l2 -104q-115 -28 -208 -28q-113 0 -164 60t-51 195q0 268 221 268q218 0 218 -225l-10 -94h-294q1 -43 24 -62t77 -19zM167 295h173q0 53 -19.5 75t-66.5 22t-66.5 -23t-20.5 -74zM101 682l256 92l48 -126l-257 -88z" />
<glyph unicode="&#xea;" horiz-adv-x="497" d="M269 111q82 0 185 9l2 -104q-115 -28 -208 -28q-113 0 -164 60t-51 195q0 268 221 268q218 0 218 -225l-10 -94h-294q1 -43 24 -62t77 -19zM167 295h173q0 53 -19.5 75t-66.5 22t-66.5 -23t-20.5 -74zM80 570l131 182h108l132 -182h-132l-53 78l-54 -78h-132z" />
<glyph unicode="&#xeb;" horiz-adv-x="497" d="M269 111q82 0 185 9l2 -104q-115 -28 -208 -28q-113 0 -164 60t-51 195q0 268 221 268q218 0 218 -225l-10 -94h-294q1 -43 24 -62t77 -19zM167 295h173q0 53 -19.5 75t-66.5 22t-66.5 -23t-20.5 -74zM91 582v148h139v-148h-139zM305 582v148h139v-148h-139z" />
<glyph unicode="&#xec;" horiz-adv-x="261" d="M-19 774l256 -92l-47 -122l-257 88zM67 0v499h134v-499h-134z" />
<glyph unicode="&#xed;" horiz-adv-x="261" d="M-15 682l256 92l48 -126l-257 -88zM67 0v499h134v-499h-134z" />
<glyph unicode="&#xee;" horiz-adv-x="261" d="M67 0v499h134v-499h-134zM-55 570l131 182h108l132 -182h-132l-53 78l-54 -78h-132z" />
<glyph unicode="&#xef;" horiz-adv-x="261" d="M-46 582v148h139v-148h-139zM168 582v148h139v-148h-139zM67 0v499h134v-499h-134z" />
<glyph unicode="&#xf1;" horiz-adv-x="574" d="M77 0h134v369q63 17 96 17q42 0 56 -30.5t14 -94.5v-261h134v261q0 129 -38 189.5t-138 60.5q-21 0 -52 -8.5t-51 -16.5l-21 -9v22h-134v-499zM429 702l22 -17q-51 -55 -83 -55t-69.5 27t-59.5 27q-26 0 -69 -41l-25 18q56 54 95 54q34 0 72 -26.5t56 -26.5t61 40z" />
<glyph unicode="&#xf2;" horiz-adv-x="536" d="M318 511q124 0 177 -68.5t53 -192.5t-53 -193t-177 -69t-177 69t-53 193t53 192.5t177 68.5zM318 109q53 0 73.5 34t20.5 107t-20.5 106.5t-73.5 33.5t-73.5 -33.5t-20.5 -106.5t20.5 -107t73.5 -34zM125 774l256 -92l-47 -122l-257 88z" />
<glyph unicode="&#xf3;" horiz-adv-x="536" d="M318 511q-124 0 -177 -68.5t-53 -192.5t53 -193t177 -69t177 69t53 193t-53 192.5t-177 68.5zM318 109q-53 0 -73.5 34t-20.5 107t20.5 106.5t73.5 33.5t73.5 -33.5t20.5 -106.5t-20.5 -107t-73.5 -34zM107 682l256 92l48 -126l-257 -88z" />
<glyph unicode="&#xf4;" horiz-adv-x="536" d="M318 511q-124 0 -177 -68.5t-53 -192.5t53 -193t177 -69t177 69t53 193t-53 192.5t-177 68.5zM318 109q-53 0 -73.5 34t-20.5 107t20.5 106.5t73.5 33.5t73.5 -33.5t20.5 -106.5t-20.5 -107t-73.5 -34zM78 570l131 182h108l132 -182h-132l-53 78l-54 -78h-132z" />
<glyph unicode="&#xf5;" horiz-adv-x="536" d="M318 511q-124 0 -177 -68.5t-53 -192.5t53 -193t177 -69t177 69t53 193t-53 192.5t-177 68.5zM318 109q-53 0 -73.5 34t-20.5 107t20.5 106.5t73.5 33.5t73.5 -33.5t20.5 -106.5t-20.5 -107t-73.5 -34zM394 702l22 -17q-51 -55 -83 -55t-69.5 27t-59.5 27q-26 0 -69 -41 l-25 18q56 54 95 54q33 0 71 -26.5t57 -26.5t61 40z" />
<glyph unicode="&#xf6;" horiz-adv-x="536" d="M318 511q-124 0 -177 -68.5t-53 -192.5t53 -193t177 -69t177 69t53 193t-53 192.5t-177 68.5zM318 109q-53 0 -73.5 34t-20.5 107t20.5 106.5t73.5 33.5t73.5 -33.5t20.5 -106.5t-20.5 -107t-73.5 -34zM87 582v148h139v-148h-139zM301 582v148h139v-148h-139z" />
<glyph unicode="&#xf7;" d="M201 402v132h132v-132h-132zM10 229v122h506v-122h-506zM201 46v132h132v-132h-132z" />
<glyph unicode="&#xf8;" horiz-adv-x="526" d="M108 -94l42 104q-51 23 -70.5 81t-19.5 170q0 138 46.5 193t158.5 55q47 0 83 -12l40 96l30 -11l-40 -98q88 -51 88 -225q0 -147 -41 -207.5t-160 -60.5q-49 0 -85 9l-42 -104zM97 261q0 -98 13 -148t53 -71l173 424q-33 11 -71 11q-97 0 -132.5 -45.5t-35.5 -170.5z M265 23q54 0 87.5 13.5t50 46t21.5 71.5t5 105q0 146 -65 192l-171 -421q28 -7 72 -7z" />
<glyph unicode="&#xf9;" horiz-adv-x="511" d="M377 499h134v-499h-134v21q-78 -33 -124 -33q-105 0 -140.5 57t-35.5 193v261h134v-261q0 -76 11.5 -102.5t58.5 -26.5q15 0 39 4.5t40 8.5l17 4v373zM134 774l256 -92l-47 -122l-257 88z" />
<glyph unicode="&#xfa;" horiz-adv-x="511" d="M511 499h-134v-373q-63 -17 -96 -17q-47 0 -58.5 26.5t-11.5 102.5v261h-134v-261q0 -136 35.5 -193t140.5 -57q20 0 51 8t52 16l21 9v-21h134v499zM116 682l256 92l48 -126l-257 -88z" />
<glyph unicode="&#xfb;" horiz-adv-x="511" d="M511 499h-134v-373q-63 -17 -96 -17q-47 0 -58.5 26.5t-11.5 102.5v261h-134v-261q0 -136 35.5 -193t140.5 -57q20 0 51 8t52 16l21 9v-21h134v499zM87 570l131 182h108l132 -182h-132l-53 78l-54 -78h-132z" />
<glyph unicode="&#xfc;" horiz-adv-x="511" d="M511 499h-134v-373q-63 -17 -96 -17q-47 0 -58.5 26.5t-11.5 102.5v261h-134v-261q0 -136 35.5 -193t140.5 -57q20 0 51 8t52 16l21 9v-21h134v499zM96 582v148h139v-148h-139zM310 582v148h139v-148h-139z" />
<glyph unicode="&#xfd;" horiz-adv-x="480" d="M-1 499h132l91 -368h23l91 368h132l-124 -499l-51 -209h-132l51 209h-90zM90 682l256 92l48 -126l-257 -88z" />
<glyph unicode="&#xfe;" horiz-adv-x="538" d="M268 109q67 0 90 31.5t23 114.5q0 72 -21.5 102t-62.5 30l-90 -8v-265q46 -5 61 -5zM315 511q105 0 153.5 -58t48.5 -198q0 -156 -56 -211.5t-193 -55.5q-8 0 -30 1.5t-31 1.5v-201h-134v910h134v-212q64 23 108 23z" />
<glyph unicode="&#xff;" horiz-adv-x="480" d="M30 500l155 -500h61l-72 -230h37l229 730h-37l-148 -468h-41l-147 468h-37zM137 638v62h35v-62h-35zM307 638v62h35v-62h-35z" />
<glyph unicode="&#x152;" horiz-adv-x="944" d="M875 0h-436q-76 -12 -119 -12q-151 0 -205.5 83.5t-54.5 273.5q0 196 58.5 276.5t201.5 80.5q43 0 117 -12h438v-132h-302v-143h242v-131h-242v-152h302v-132zM344 124q25 0 93 6v430q-70 6 -97 6q-55 0 -83.5 -17.5t-41.5 -65t-13 -138.5q0 -131 27.5 -176t114.5 -45z " />
<glyph unicode="&#x153;" horiz-adv-x="876" d="M618 111q82 0 185 9l2 -104q-115 -28 -208 -28q-102 0 -153 48q-56 -48 -156 -48q-124 0 -177 69t-53 193t53 192.5t177 68.5q105 0 162 -54q56 54 153 54q218 0 218 -225l-10 -94h-294q1 -43 24 -62t77 -19zM288 109q53 0 73.5 34t20.5 107t-20.5 106.5t-73.5 33.5 t-73.5 -33.5t-20.5 -106.5t20.5 -107t73.5 -34zM516 295h173q0 53 -19.5 75t-66.5 22t-67 -23.5t-20 -73.5z" />
<glyph unicode="&#x178;" horiz-adv-x="540" d="M289 301v-301h-36v301l-228 399h41l205 -359l202 359h42zM167 838v62h35v-62h-35zM337 838v62h35v-62h-35z" />
<glyph unicode="&#x2c6;" horiz-adv-x="833" d="M225 570l131 182h108l132 -182h-132l-53 78l-54 -78h-132z" />
<glyph unicode="&#x2dc;" horiz-adv-x="833" d="M362 702l22 -17q-51 -55 -83 -55t-69.5 27t-59.5 27q-26 0 -69 -41l-25 18q56 54 95 54q33 0 71 -26.5t57 -26.5t61 40z" />
<glyph unicode="&#x2000;" horiz-adv-x="487" />
<glyph unicode="&#x2001;" horiz-adv-x="974" />
<glyph unicode="&#x2002;" horiz-adv-x="487" />
<glyph unicode="&#x2003;" horiz-adv-x="974" />
<glyph unicode="&#x2004;" horiz-adv-x="324" />
<glyph unicode="&#x2005;" horiz-adv-x="243" />
<glyph unicode="&#x2006;" horiz-adv-x="162" />
<glyph unicode="&#x2007;" horiz-adv-x="162" />
<glyph unicode="&#x2008;" horiz-adv-x="121" />
<glyph unicode="&#x2009;" horiz-adv-x="194" />
<glyph unicode="&#x200a;" horiz-adv-x="54" />
<glyph unicode="&#x2010;" horiz-adv-x="440" d="M70 215v132h300v-132h-300z" />
<glyph unicode="&#x2011;" horiz-adv-x="440" d="M70 215v132h300v-132h-300z" />
<glyph unicode="&#x2018;" horiz-adv-x="170" d="M165 727l-50 -247h-137l58 247h129z" />
<glyph unicode="&#x2019;" horiz-adv-x="170" d="M4 527l50 247h136l-57 -247h-129z" />
<glyph unicode="&#x2022;" d="M247 0v80h40v-80h-40z" />
<glyph unicode="&#x202f;" horiz-adv-x="194" />
<glyph unicode="&#x205f;" horiz-adv-x="243" />
<glyph unicode="&#x20ac;" horiz-adv-x="593" d="M68 462h60q15 116 70.5 163t172.5 47q38 0 82.5 -5t70.5 -9l26 -5l-4 -121q-101 4 -155 4q-56 0 -82 -15t-37 -60h209v-103h-218v-28v-36h218v-104h-208q11 -39 38 -52.5t84 -13.5l151 5l3 -124q-99 -17 -178 -17q-120 0 -174 47t-69 155h-60v104h53v36v28h-53v104z" />
<glyph unicode="&#x2122;" d="M7 590v31h200v-31h-83v-258h-33v258h-84zM242 331v290h50l84 -242l87 242h50v-290h-32v258l-88 -247h-35l-84 247v-258h-32z" />
</font>
</defs>
</svg>
