<?xml version="1.0" standalone="no"?>
<!DOCTYPE svg PUBLIC "-//W3C//DTD SVG 1.1//EN" "http://www.w3.org/Graphics/SVG/1.1/DTD/svg11.dtd" >
<svg xmlns="http://www.w3.org/2000/svg">
<metadata>
This is a custom SVG webfont generated by Font Squirrel.
Copyright   : Generated in 2009 by FontLab Studio. Copyright info pending.
</metadata>
<defs>
<font id="webfont" horiz-adv-x="530" >
<font-face units-per-em="1000" ascent="750" descent="-250" />
<missing-glyph horiz-adv-x="235" />
<glyph unicode=" "  horiz-adv-x="235" />
<glyph unicode="&#x09;" horiz-adv-x="235" />
<glyph unicode="&#xa0;" horiz-adv-x="235" />
<glyph unicode="!" d="M250 0v80h40v-80h-40zM252 213v486h35v-486h-35z" />
<glyph unicode="&#x22;" horiz-adv-x="280" d="M226 501h-35v200h35v-200zM85 501h-35v200h35v-200z" />
<glyph unicode="#" d="M513 190h-120v-190h-36v190h-188v-190h-36v190h-120v32h120v226h-120v32h120v190h36v-190h188v190h36v-190h120v-32h-120v-226h120v-32zM357 222v226h-188v-226h188z" />
<glyph unicode="$" d="M196 -113l14 109l-144 13l4 35q76 -10 144 -15l39 298q-51 9 -81.5 19t-58.5 29.5t-40 51t-12 78.5q0 92 55 129t162 37h20l16 119h35l-16 -121l141 -14l-3 -34q-79 9 -142 14l-36 -277q57 -10 88 -19.5t60 -28.5t40.5 -50t11.5 -80q0 -97 -53.5 -142t-159.5 -45 q-22 0 -35 1l-14 -114q-35 3 -35 7zM454 179q0 32 -7 54.5t-18 36.5t-34 24t-45 15t-62 12l-38 -294h29q175 0 175 152zM100 507q0 -72 34.5 -99.5t123.5 -43.5l36 273h-16q-90 0 -134 -29t-44 -101z" />
<glyph unicode="%" d="M135 702q54 0 80 -31.5t26 -102.5q0 -138 -106 -138q-54 0 -80 33.5t-26 105.5q0 70 25.5 101.5t80.5 31.5zM416 272q54 0 80 -31.5t26 -102.5q0 -138 -106 -138q-54 0 -80 33.5t-26 105.5q0 70 25.5 101.5t80.5 31.5zM186 6l144 695l36 -7l-144 -695zM64 569 q0 -54 16 -80.5t55 -26.5q40 0 55.5 26t15.5 80q0 53 -15.5 77.5t-55.5 24.5q-39 0 -55 -24.5t-16 -76.5zM345 139q0 -54 16 -80.5t55 -26.5q40 0 55.5 26t15.5 80q0 53 -15.5 77.5t-55.5 24.5q-39 0 -55 -24.5t-16 -76.5z" />
<glyph unicode="&#x26;" horiz-adv-x="700" d="M323 694q78 0 115.5 -39t37.5 -106q0 -72 -38 -112.5t-127 -69.5l187 -185q20 58 31 146h35q-14 -108 -39 -172l140 -137l-24 -26l-131 130q-66 -132 -222 -132q-126 0 -178 55t-52 162q0 89 38 132.5t125 68.5q-32 35 -41.5 65t-9.5 76q0 65 39 104.5t114 39.5zM290 24 q137 0 194 124l-237 235q-86 -23 -120 -60t-34 -114q0 -93 46 -139t151 -46zM205 550q0 -78 45 -123l36 -36q87 30 121 63t34 96q0 112 -118 112t-118 -112z" />
<glyph unicode="'" horiz-adv-x="100" d="M32 488l-2 210h40l-5 -210h-33z" />
<glyph unicode="(" horiz-adv-x="260" d="M153 750h35q-11 -29 -26.5 -77.5t-42 -168t-26.5 -203.5q0 -167 87 -405l8 -21h-35q-11 25 -27 68t-43 156t-27 202t24 201t48 180z" />
<glyph unicode=")" horiz-adv-x="260" d="M91 -120h-35q11 29 26.5 77.5t42 168t26.5 203.5q0 167 -87 405l-8 21h35q11 -25 27 -68t43 -156t27 -202t-24 -201t-48 -180z" />
<glyph unicode="*" d="M434 519h-137l42 -129l-32 -10l-42 130l-110 -79l-19 27l110 80l-109 80l20 27l110 -81l42 129l32 -10l-42 -130h135v-34z" />
<glyph unicode="+" horiz-adv-x="410" d="M-49 234v34h232v232h36v-232h234v-34h-234v-234h-36v234h-232z" />
<glyph unicode="," horiz-adv-x="170" d="M47 -123l42 210h40l-51 -210h-31z" />
<glyph unicode="-" horiz-adv-x="440" d="M60 264v34h320v-34h-320z" />
<glyph unicode="." horiz-adv-x="248" d="M98 0v80h40v-80h-40z" />
<glyph unicode="/" d="M109 12l277 690l33 -14l-277 -689z" />
<glyph unicode="0" d="M264 670q79 0 126.5 -28.5t74 -108t26.5 -219.5q0 -94 -15 -158t-45.5 -99.5t-70 -50.5t-95.5 -15t-96 15t-70.5 51t-45.5 100t-15 159q0 105 14.5 175.5t45 109t70 54t96.5 15.5zM264 636q-67 0 -106 -25.5t-60.5 -97t-21.5 -199.5q0 -87 12 -144.5t38 -89t58.5 -43.5 t80.5 -12q64 0 103 22.5t62 87.5t23 181q0 126 -21 196.5t-60.5 97t-107.5 26.5z" />
<glyph unicode="1" d="M90 524l204 136h36v-660h-36v621l-187 -126z" />
<glyph unicode="2" d="M479 0h-428v34l237 239q69 69 100.5 118.5t31.5 109.5q0 73 -41.5 104t-126.5 31q-34 0 -82 -6q-47 -8 -78 -14l-31 -6l-5 34q104 26 197 26q102 0 153.5 -39t51.5 -130q0 -50 -22 -97.5t-44.5 -74t-64.5 -68.5l-227 -226h379v-35z" />
<glyph unicode="3" d="M61 647q99 23 199 23q106 0 152 -39.5t46 -125.5q0 -35 -11.5 -63.5t-27.5 -44t-33.5 -26.5t-28 -14.5t-12.5 -3.5q65 -17 98.5 -53t33.5 -118q0 -97 -51 -144t-157 -47q-48 0 -102.5 5.5t-84.5 11.5l-30 6l6 34q105 -23 211 -23q170 1 170 154q0 82 -43.5 115.5 t-118.5 37.5h-134v34h133q49 0 96.5 37t47.5 103q0 71 -35.5 100.5t-123.5 29.5q-44 0 -92.5 -6t-74.5 -12l-27 -5z" />
<glyph unicode="4" d="M370 0v132h-338v30l216 498h39l-212 -494h295v179h36v-179h92v-34h-92v-132h-36z" />
<glyph unicode="5" d="M82 660h372v-35h-338l-18 -264q10 6 26.5 14.5t64 22.5t88.5 14q208 0 208 -192q0 -113 -57.5 -170t-160.5 -57q-100 0 -209 24l5 34q110 -24 203 -24q83 0 132 50t49 143q0 158 -171 158q-40 0 -84.5 -14t-69.5 -28l-25 -13l-34 4z" />
<glyph unicode="6" d="M452 651l-4 -33q-72 18 -156 18q-102 0 -154.5 -65.5t-53.5 -212.5q0 1 28.5 12.5t76.5 23.5t87 12q106 0 157 -49t51 -149q0 -104 -53 -160.5t-161 -56.5q-116 0 -170 84t-54 262q0 179 63.5 256t182.5 77q84 0 160 -19zM275 372q-91 -3 -192 -49q2 -149 46 -223.5 t141 -74.5q176 0 176 183q0 164 -171 164z" />
<glyph unicode="7" d="M49 626v34h402v-65l-268 -604l-35 14l265 598v23h-364z" />
<glyph unicode="8" d="M268 670q239 0 239 -165q0 -64 -34 -100.5t-104 -56.5q70 -20 109 -58.5t39 -110.5q0 -105 -64.5 -146.5t-184.5 -41.5q-246 0 -246 177q0 76 34 114t103 66q-62 22 -94 58t-32 100q0 164 235 164zM268 25q104 0 157.5 33.5t53.5 119.5q0 38 -11.5 65t-37 43.5t-48.5 25 t-61 18.5h-117q-71 -17 -107 -53.5t-36 -107.5q0 -79 54 -111.5t153 -32.5zM268 636q-101 0 -149 -29.5t-48 -101.5q0 -59 32.5 -91t100.5 -51h117q73 17 110 50t37 91q0 71 -49 101.5t-151 30.5z" />
<glyph unicode="9" d="M74 12l6 32q82 -19 166 -19q100 0 150.5 64.5t51.5 206.5l-28 -10q-28 -10 -76.5 -20t-87.5 -10q-102 0 -155.5 51.5t-53.5 153.5q0 99 59.5 154t160.5 55q117 0 167.5 -87t50.5 -259q0 -181 -60.5 -257t-178.5 -76q-37 0 -80 5q-44 6 -68 11zM258 290q35 0 83 10 q48 12 78 22l30 10q-3 151 -43.5 227.5t-138.5 76.5q-85 0 -133.5 -46t-48.5 -129q0 -171 173 -171z" />
<glyph unicode=":" horiz-adv-x="141" d="M77 344v80h40v-80h-40zM77 0v80h40v-80h-40z" />
<glyph unicode=";" horiz-adv-x="170" d="M78 87l-41 -210h31l52 210h-42zM75 344v80h40v-80h-40z" />
<glyph unicode="&#x3c;" d="M410 520l-315 -206l315 -217v-41q-313 213 -347 238v36l347 229v-39z" />
<glyph unicode="=" d="M41 343v34h445v-34h-445zM42 174v34h445v-34h-445z" />
<glyph unicode="&#x3e;" d="M378 314l-315 206v39l347 -229v-36l-347 -238v41z" />
<glyph unicode="?" horiz-adv-x="386" d="M376 551q0 -45 -20.5 -84.5t-50 -68l-58.5 -54.5t-49.5 -55.5t-20.5 -60.5v-38h-35v41q0 34 20.5 66.5t50 59.5l58.5 55t49.5 64t20.5 75q0 69 -40.5 97t-124.5 28q-48 0 -161 -28l-5 34q112 27 166 27q99 0 149.5 -36.5t50.5 -121.5zM140 1v80h40v-80h-40z" />
<glyph unicode="@" horiz-adv-x="985" d="M925 305v-17q0 -61 -4.5 -107.5t-11 -78t-19 -53t-24 -33t-31 -17.5t-34 -7.5t-39.5 -1.5q-33 0 -50 3t-32.5 17t-24.5 43q-111 -62 -191 -62q-24 0 -42 2.5t-44 16.5t-42 39t-28.5 75t-12.5 119q0 136 46 201t164 65q25 0 58 -6.5t53 -13.5l21 -7v18h35v-200 q0 -139 7.5 -195.5t23.5 -70.5t59 -14q28 0 43.5 3t33.5 17t27 42t15.5 79t6.5 127v18q0 201 -88 291t-296 90q-213 0 -310 -96t-97 -330q0 -124 24 -207t76.5 -131.5t125.5 -69t181 -20.5l143 10l3 -33q-98 -9 -146 -9q-116 0 -195 21.5t-137 73t-85 141.5t-27 224 q0 247 108 352.5t336 105.5q226 0 323.5 -99t97.5 -315zM464 23q80 0 184 60q-11 63 -11 217v150q-73 27 -132 27q-101 0 -138 -57.5t-37 -179.5q0 -71 12.5 -117.5t34.5 -66.5t41.5 -26.5t45.5 -6.5z" />
<glyph unicode="A" horiz-adv-x="604" d="M35 0l215 700h106l213 -698h-36l-67 213h-328l-67 -215h-36zM275 666l-127 -417h308l-127 417h-54z" />
<glyph unicode="B" horiz-adv-x="627" d="M103 700h240q102 0 152 -41t50 -129q0 -133 -97 -169q124 -34 124 -165q0 -108 -54 -152t-156 -44h-259v700zM354 341h-215v-307h223q83 0 128 36.5t45 125.5q0 145 -181 145zM343 666h-204v-292h215q80 0 117 39t37 117q0 72 -40 104t-125 32z" />
<glyph unicode="C" horiz-adv-x="537" d="M489 45l3 -34q-106 -20 -185 -20q-76 0 -125.5 23.5t-76.5 72.5t-37 110t-10 150q0 71 5.5 122t21 99t42.5 77t72 46.5t108 17.5q42 0 88.5 -4.5t71.5 -9.5l25 -5l-3 -35q-101 20 -182 20q-55 0 -94 -16t-61.5 -41.5t-35 -70t-16.5 -89.5t-4 -111t4 -111t17 -88t36 -68 t61.5 -40t92.5 -15q32 0 77.5 5t75.5 10z" />
<glyph unicode="D" horiz-adv-x="653" d="M363 0h-260v700h260q64 0 110.5 -28t73 -77t38.5 -107.5t12 -127.5q0 -70 -12.5 -131t-38.5 -114t-73 -84t-110 -31zM559 360q0 60 -10 111.5t-31.5 97t-61 71.5t-93.5 26h-224v-632h224q54 0 93.5 29t61 78.5t31.5 104t10 114.5z" />
<glyph unicode="E" horiz-adv-x="572" d="M103 0v700h409v-34h-373v-289h313v-34h-313v-309h373v-34h-409z" />
<glyph unicode="F" horiz-adv-x="563" d="M103 0v700h410v-34h-374v-316h314v-34h-314v-316h-36z" />
<glyph unicode="G" horiz-adv-x="617" d="M356 313v34h186v-331q-141 -25 -220 -25q-147 0 -204.5 89t-57.5 267q0 87 11.5 149.5t39.5 112.5t80.5 75t130.5 25q105 0 220 -25l-3 -35q-126 26 -217 26q-69 0 -114 -22t-68.5 -68t-32.5 -101.5t-9 -136.5q0 -80 9.5 -135.5t33.5 -99.5t69 -65.5t112 -21.5 q31 0 75.5 5t76 10t32.5 5v268h-150z" />
<glyph unicode="H" horiz-adv-x="696" d="M557 0v334h-418v-334h-36v700h36v-332h418v332h36v-700h-36z" />
<glyph unicode="I" horiz-adv-x="226" d="M95 0v700h36v-700h-36z" />
<glyph unicode="J" horiz-adv-x="304" d="M208 701q0 -106 0.5 -297.5t0.5 -298.5q0 -33 -2 -58.5t-8.5 -44.5t-12.5 -31.5t-19.5 -21t-23 -13t-31 -6.5t-35 -2.5t-42.5 -0.5v34q36 0 51.5 0.5t35.5 5.5t26 13t13.5 26.5t9 43.5t1.5 65v586h36z" />
<glyph unicode="K" horiz-adv-x="597" d="M501 0l-231 329h-131v-329h-36v700h36v-337h129l220 337h43l-231 -352l247 -348h-46z" />
<glyph unicode="L" d="M480 0h-377v700h36v-666h341v-34z" />
<glyph unicode="M" horiz-adv-x="851" d="M103 0v700h77l245 -645l247 645h76v-700h-36v666h-14l-249 -645h-50l-246 645h-14v-666h-36z" />
<glyph unicode="N" horiz-adv-x="687" d="M103 0v700h85l333 -666h27v666h36v-700h-85l-334 666h-26v-666h-36z" />
<glyph unicode="O" horiz-adv-x="656" d="M328 25q72 0 117.5 18.5t70 61t33.5 98.5t9 144q0 168 -48.5 248t-181.5 80q-70 0 -116 -21t-70.5 -65.5t-34 -101t-9.5 -140.5q0 -85 9 -140t33.5 -98.5t70.5 -63.5t117 -20zM328 -9q-80 0 -133 22t-82.5 69.5t-41 110t-11.5 154.5q0 184 58 273t210 89t210 -88.5 t58 -273.5q0 -191 -56.5 -273.5t-211.5 -82.5z" />
<glyph unicode="P" horiz-adv-x="615" d="M358 257h-219v-257h-36v700h255q108 0 157.5 -51t49.5 -160q0 -232 -207 -232zM139 291h219q169 0 169 198q0 92 -39.5 134.5t-129.5 42.5h-219v-375z" />
<glyph unicode="Q" horiz-adv-x="656" d="M525 -138l-87 143q-48 -14 -110 -14q-80 0 -133 22t-82.5 69.5t-41 110t-11.5 154.5q0 184 58 273t210 89t210 -88.5t58 -273.5q0 -137 -26.5 -215t-94.5 -113l86 -140zM328 25q72 0 117.5 18.5t70 61t33.5 98.5t9 144q0 168 -48.5 248t-181.5 80q-70 0 -116 -21 t-70.5 -65.5t-34 -101t-9.5 -140.5q0 -85 9 -140t33.5 -98.5t70.5 -63.5t117 -20z" />
<glyph unicode="R" horiz-adv-x="630" d="M378 290h-24h-215v-290h-36v700h251q106 0 157 -48t51 -152q0 -178 -145 -205l158 -295h-41zM524 500q0 87 -41 126.5t-129 39.5h-215v-342h215q93 0 131.5 45t38.5 131z" />
<glyph unicode="S" horiz-adv-x="536" d="M468 695l-4 -35q-137 17 -195 17q-178 0 -178 -140q0 -30 4.5 -52.5t16.5 -38t25 -26t38 -18t46 -12t58 -10.5q109 -17 156.5 -52.5t47.5 -124.5q0 -113 -52.5 -161.5t-159.5 -48.5q-33 0 -86.5 4t-90.5 8l-37 4l4 35q138 -17 209 -17q88 0 131.5 41t43.5 132 q0 73 -38 101t-137 43q-60 9 -93.5 18.5t-65 29.5t-45 54.5t-13.5 88.5q0 176 216 176q77 0 199 -16z" />
<glyph unicode="T" horiz-adv-x="500" d="M0 666v34h500v-34h-231v-666h-36v666h-233z" />
<glyph unicode="U" horiz-adv-x="642" d="M126 196q0 -91 49 -131t141 -40q99 0 149.5 39.5t50.5 131.5v504h36v-504q0 -109 -59.5 -157t-176.5 -48q-110 0 -168 48t-58 157v504h36v-504z" />
<glyph unicode="V" horiz-adv-x="579" d="M508 700h36l-194 -700h-116l-199 700h36l192 -666h58z" />
<glyph unicode="W" horiz-adv-x="872" d="M45 700h35l143 -666h38l155 656h40l160 -656h38l138 666h35l-144 -700h-96l-151 643l-146 -643h-96z" />
<glyph unicode="X" horiz-adv-x="581" d="M83 700l208 -326l207 326h43l-223 -353l223 -347h-43l-206 322l-209 -322h-43l226 347l-226 353h43z" />
<glyph unicode="Y" horiz-adv-x="540" d="M289 301v-301h-36v301l-228 399h41l205 -359l202 359h42z" />
<glyph unicode="Z" horiz-adv-x="570" d="M60 666v34h450v-70l-413 -575v-22h413v-34h-450v69l413 574v24h-413z" />
<glyph unicode="[" horiz-adv-x="300" d="M231 749v-32h-147v-808h147v-32h-182l-1 872h183z" />
<glyph unicode="\" horiz-adv-x="833" d="M582 14l-35 -14l-301 687l35 14z" />
<glyph unicode="]" horiz-adv-x="300" d="M51 717v32h183l-1 -872h-182v32h147v808h-147z" />
<glyph unicode="^" horiz-adv-x="833" d="M379 439l-110 215l-113 -215h-140l181 347h140l182 -347h-140z" />
<glyph unicode="_" horiz-adv-x="520" d="M27 -34h428v-34h-428v34z" />
<glyph unicode="`" horiz-adv-x="545" d="M166 732l192 -96l-15 -27l-193 92z" />
<glyph unicode="a" horiz-adv-x="518" d="M418 353v-287q4 -36 75 -42l-2 -32q-75 0 -103 40q-93 -41 -206 -41q-60 0 -93.5 37.5t-33.5 108.5q0 65 32.5 101t105.5 43l190 20v52q0 64 -27.5 93t-83.5 29q-32 0 -79.5 -4.5t-78.5 -8.5l-31 -4l-3 33q112 18 192 18q146 0 146 -156zM383 268l-186 -18 q-105 -11 -105 -113q0 -54 24.5 -84t66.5 -30q44 0 94 10t78 20l28 10v205z" />
<glyph unicode="b" horiz-adv-x="538" d="M308 509q99 0 134.5 -56.5t35.5 -191.5q0 -147 -47 -208.5t-181 -61.5q-68 0 -149 9v730h35v-261q83 40 172 40zM249 23q62 0 100.5 13.5t58.5 45.5t26.5 72t6.5 105q0 119 -26.5 168.5t-106.5 49.5q-40 0 -83 -10t-66 -20l-23 -10v-408q78 -6 113 -6z" />
<glyph unicode="c" horiz-adv-x="437" d="M265 509l120 -10l-2 -32q-80 10 -118 10q-95 0 -131.5 -48t-36.5 -168q0 -135 33 -186.5t135 -51.5l120 9l2 -32q-84 -9 -122 -9q-122 0 -163.5 57.5t-41.5 212.5q0 138 46 193t159 55z" />
<glyph unicode="d" horiz-adv-x="538" d="M437 700v-700h-35v42q-9 -6 -25 -14.5t-62 -22.5t-86 -14q-24 0 -42 2.5t-44 16.5t-42 39t-28.5 75t-12.5 119q0 136 46 201t164 65q57 0 132 -12v203h35zM229 23q84 1 173 52v390q-104 12 -132 12q-101 0 -138 -57.5t-37 -179.5q0 -71 12.5 -117.5t34.5 -66.5 t41.5 -26.5t45.5 -6.5z" />
<glyph unicode="e" horiz-adv-x="507" d="M249 23q70 0 182 9l2 -32q-112 -9 -185 -9q-106 1 -147 64.5t-41 194.5q0 259 202 259q95 0 142.5 -57t47.5 -183v-33h-355q0 -108 34 -160.5t118 -52.5zM97 268h318q0 113 -36.5 161t-116.5 48q-165 0 -165 -209z" />
<glyph unicode="f" horiz-adv-x="328" d="M139 468v-468h-35v468h-69v32h69v61q0 105 28 141.5t99 36.5l92 -3v-31q-64 2 -92 2q-53 0 -72.5 -29.5t-19.5 -117.5v-60h162v-32h-162z" />
<glyph unicode="g" horiz-adv-x="504" d="M253 -239q-121 0 -159.5 33.5t-38.5 125.5q0 32 11.5 55t26 36t47.5 37q-22 14 -22 65q0 7 8 27q6 19 14 35l8 16q-86 28 -86 152q0 167 171 167q24 0 50.5 -3t40.5 -7l15 -3l140 3v-35h-108q40 -37 40 -122q0 -91 -42.5 -127.5t-139.5 -36.5q-30 0 -54 4 q-23 -57 -23 -70q0 -17 2 -25t8 -15t23 -9.5t39 -3.5t65 -1q99 0 138 -27.5t39 -116.5q0 -81 -50.5 -117.5t-162.5 -36.5zM287 27l-121 3q-45 -31 -60 -52.5t-15 -56.5q0 -74 31.5 -101t131.5 -27q93 0 134 28.5t41 93.5q0 72 -30 92t-112 20zM229 211q79 0 112 29t33 103 q0 82 -30 108.5t-112 26.5q-69 0 -101.5 -30t-32.5 -105q0 -70 28.5 -101t102.5 -31z" />
<glyph unicode="h" horiz-adv-x="567" d="M136 0h-35v750h35v-280q88 39 174 39q100 0 132 -50.5t32 -198.5v-260h-35v258q0 132 -24 175.5t-105 43.5q-40 0 -84 -10q-42 -10 -66 -20l-24 -10v-437z" />
<glyph unicode="i" horiz-adv-x="215" d="M90 0v500h35v-500h-35zM90 645v55h35v-55h-35z" />
<glyph unicode="j" horiz-adv-x="233" d="M108 6v494h35v-495q0 -85 -31.5 -129.5t-127.5 -93.5l-14 31q86 47 112 83.5t26 109.5zM108 645v55h35v-55h-35z" />
<glyph unicode="k" horiz-adv-x="483" d="M136 0h-35v730h35v-438h94l182 208h41l-192 -226l192 -274h-41l-182 257h-94v-257z" />
<glyph unicode="l" horiz-adv-x="225" d="M95 0v730h35v-730h-35z" />
<glyph unicode="m" horiz-adv-x="875" d="M136 0h-35v500h35v-40l24 13.5t58.5 22t81.5 13.5q30 0 58 -5q48 -9 72 -43q112 48 188 48q100 0 132 -50.5t32 -198.5v-260h-35v258q0 132 -24 175.5t-105 43.5q-39 0 -82 -12.5t-63.5 -22.5t-26.5 -14q18 -49 18 -168v-260h-35v258q0 132 -24 175.5t-105 43.5 q-84 0 -162 -49l-2 -1v-427z" />
<glyph unicode="n" horiz-adv-x="573" d="M136 0h-35v500h35v-40q89 49 175 49q100 0 132 -50.5t32 -198.5v-260h-35v258q0 132 -24 175.5t-105 43.5q-87 -1 -175 -50v-427z" />
<glyph unicode="o" horiz-adv-x="526" d="M265 509q103 0 152 -58t49 -192q0 -147 -41 -207.5t-160 -60.5q-122 0 -163.5 58t-41.5 212q0 138 46.5 193t158.5 55zM265 23q54 0 87.5 13.5t50 46t21.5 71.5t5 105q0 118 -39.5 168t-124.5 50q-97 0 -132.5 -45.5t-35.5 -170.5q0 -70 5.5 -110.5t23.5 -72t51 -43.5 t88 -12z" />
<glyph unicode="p" horiz-adv-x="540" d="M101 -230v730h35v-42q9 6 25 14.5t62 22.5t86 14q90 0 130.5 -61t40.5 -191q0 -141 -48.5 -203.5t-163.5 -62.5q-68 0 -132 14v-235h-35zM309 477q-82 0 -171 -52l-2 -1v-387q77 -14 132 -14q96 0 135.5 53.5t39.5 183.5q0 116 -33.5 166.5t-100.5 50.5z" />
<glyph unicode="q" horiz-adv-x="538" d="M240 -9q-99 0 -139.5 60.5t-40.5 187.5q0 145 49.5 207.5t178.5 62.5l149 -9v-730h-35v259q-73 -38 -162 -38zM289 477q-113 0 -152.5 -55t-39.5 -181q0 -111 31.5 -164.5t111.5 -53.5q40 0 80 10q42 10 62 20l20 10v408q-78 6 -113 6z" />
<glyph unicode="r" horiz-adv-x="354" d="M101 0v500h35v-78q10 8 27.5 19.5t69.5 35.5t101 33v-34q-96 -19 -198 -87v-389h-35z" />
<glyph unicode="s" horiz-adv-x="483" d="M403 494l-2 -33q-102 16 -170 16q-134 0 -134 -100q0 -47 28 -66.5t114 -32.5q106 -17 144 -42t38 -92q0 -84 -48 -118.5t-142 -34.5q-25 0 -67 4t-70 8l-28 4l4 33q108 -17 159 -17q77 0 116 25t39 93q0 52 -30.5 71t-124.5 33q-95 15 -132 39.5t-37 90.5q0 50 27 81.5 t63 42t81 10.5q34 0 77 -3.5t69 -7.5z" />
<glyph unicode="t" horiz-adv-x="372" d="M331 468h-182v-262q0 -115 16.5 -149.5t75.5 -34.5l98 8l3 -32q-66 -8 -101 -8q-71 0 -99 36.5t-28 141.5v300h-79v32h79v163h35v-163h182v-32z" />
<glyph unicode="u" horiz-adv-x="557" d="M421 500h35v-500h-35v40l-24 -13.5t-58.5 -22t-81.5 -13.5q-100 0 -132 50.5t-32 198.5v260h35v-258q0 -132 24 -175.5t105 -43.5q84 0 162 49l2 1v427z" />
<glyph unicode="v" horiz-adv-x="480" d="M35 500h37l146 -468h43l147 468h37l-157 -500h-98z" />
<glyph unicode="w" horiz-adv-x="761" d="M38 500h37l127 -468h11l148 458h39l147 -458h11l128 468h37l-137 -500h-68l-138 448l-139 -448h-68z" />
<glyph unicode="x" horiz-adv-x="456" d="M38 500h40l150 -223l150 223h40l-169 -250l169 -250h-41l-149 223l-149 -223h-41l169 250z" />
<glyph unicode="y" horiz-adv-x="480" d="M35 500h37l147 -468h41l148 468h37l-167 -531l-62 -199h-37l72 230h-61z" />
<glyph unicode="z" horiz-adv-x="481" d="M55 468v32h371v-32l-328 -436h328v-32h-371v32l328 436h-328z" />
<glyph unicode="{" horiz-adv-x="285" d="M139 169q-1 -19 -3.5 -58t-3.5 -58q0 -71 31 -106t112 -39l-2 -32q-95 4 -135.5 45.5t-40.5 131.5q0 21 3.5 66.5t3.5 56.5q0 48 -23.5 75t-80.5 43v32q57 14 80.5 42t23.5 78q0 13 -3.5 60.5t-3.5 67.5q0 90 40.5 131.5t135.5 45.5l2 -32q-82 -4 -112.5 -38.5 t-30.5 -106.5q0 -17 3.5 -61t3.5 -58q0 -65 -22 -95.5t-78 -48.5q56 -18 78 -49t22 -93z" />
<glyph unicode="|" d="M242 -59v759h35v-759h-35z" />
<glyph unicode="}" horiz-adv-x="285" d="M135 454q1 20 3.5 58t3.5 58q0 71 -31 106t-112 39l2 32q95 -4 135.5 -45.5t40.5 -131.5q0 -21 -3.5 -66.5t-3.5 -56.5q0 -48 23.5 -75t80.5 -43v-32q-57 -14 -80.5 -42t-23.5 -78q0 -13 3.5 -60.5t3.5 -67.5q0 -90 -40.5 -131.5t-135.5 -45.5l-2 32q82 4 112.5 38.5 t30.5 106.5q0 17 -3.5 61t-3.5 58q0 65 22 95.5t78 48.5q-56 18 -78 49t-22 93z" />
<glyph unicode="&#xa2;" horiz-adv-x="437" d="M234 -85v126q-96 3 -135.5 45.5t-39.5 160.5q0 110 43.5 160.5t130.5 53.5v130h35v-131l116 -10l-2 -35q-100 10 -138 10q-80 0 -112.5 -40.5t-32.5 -137.5q0 -99 31.5 -134.5t123.5 -35.5l130 8l2 -35q-74 -8 -117 -9v-126h-35z" />
<glyph unicode="&#xa3;" horiz-adv-x="570" d="M463 668v-32q-87 12 -120 12q-67 0 -84.5 -43.5t-17.5 -198.5h182v-32h-182v-340h174l82 16l7 -32l-81 -17q-51 0 -154 -0.5t-155 -0.5v34h92v340h-69v32h69v63q0 126 29.5 168.5t107.5 42.5q38 0 120 -12z" />
<glyph unicode="&#xa5;" horiz-adv-x="540" d="M47 331v34h171l-193 295h41l205 -309l202 309h42l-191 -295h168v-34h-190l-13 -20v-95h204v-34h-204v-182h-36v182h-205v34h205v95l-13 20h-193z" />
<glyph unicode="&#xa6;" d="M239 750h34v-356h-34v356zM239 296h34v-356h-34v356z" />
<glyph unicode="&#xa7;" d="M421 605l-2 -32q-106 13 -154 13q-140 0 -140 -109q0 -35 8 -57t30 -35t44.5 -19t65.5 -13q89 -14 127.5 -41.5t38.5 -98.5q0 -63 -39 -127q36 -28 36 -93q0 -158 -173 -158q-27 0 -69 3.5t-70 6.5l-29 3l3 32q110 -14 165 -14q138 0 138 126q0 57 -31.5 75.5 t-113.5 29.5q-48 7 -76 14.5t-53.5 24t-36 44.5t-10.5 71q0 54 54 110q-44 33 -44 114q0 76 44.5 109.5t130.5 33.5q63 0 156 -13zM266 321q-79 13 -107 26q-17 -19 -30.5 -45.5t-13.5 -48.5q0 -66 32.5 -89t115.5 -35q80 -12 111 -27q12 17 21 49t9 59q0 57 -32.5 78.5 t-105.5 32.5z" />
<glyph unicode="&#xa8;" horiz-adv-x="833" d="M112 638v62h35v-62h-35zM282 638v62h35v-62h-35z" />
<glyph unicode="&#xa9;" d="M10 434q0 111 73 188.5t182 77.5t182.5 -77.5t73.5 -188.5t-73.5 -188t-182.5 -77t-182 77t-73 188zM42 434q0 -98 63.5 -165.5t159.5 -67.5t160 67.5t64 165.5t-64 166t-160 68t-159.5 -68t-63.5 -166zM338 321l1 -32q-43 -8 -74 -8q-62 0 -85.5 38.5t-23.5 113.5 q0 76 23 115t86 39q38 0 74 -7l-1 -32q-41 7 -73 7q-49 0 -63 -28t-14 -94q0 -62 16 -91t61 -29z" />
<glyph unicode="&#xaa;" horiz-adv-x="518" d="M346 571v-134q6 -20 37 -23l-2 -28q-32 1 -54 22q-63 -22 -119 -22q-31 0 -50.5 22t-19.5 58q0 70 75 76l102 7v23q0 32 -12 43.5t-40 11.5l-104 -7l-2 31q69 8 106 8q43 0 63 -20.5t20 -67.5zM315 520l-97 -6q-25 -2 -36 -13.5t-11 -36.5q0 -46 40 -46q20 0 46 4t42 8 l16 5v85z" />
<glyph unicode="&#xab;" horiz-adv-x="833" d="M387 380l-135 -106l135 -117v-41q-133 113 -167 138v36l167 129v-39zM594 380l-135 -106l135 -117v-41q-133 113 -167 138v36l167 129v-39z" />
<glyph unicode="&#xad;" horiz-adv-x="440" d="M60 264v34h320v-34h-320z" />
<glyph unicode="&#xae;" d="M10 434q0 111 73 188.5t182 77.5t182.5 -77.5t73.5 -188.5t-73.5 -188t-182.5 -77t-182 77t-73 188zM42 434q0 -98 63.5 -165.5t159.5 -67.5t160 67.5t64 165.5t-64 166t-160 68t-159.5 -68t-63.5 -166zM340 276l-66 131h-79v-131h-32v315h91q64 0 89.5 -20t25.5 -70 q0 -76 -59 -91l65 -134h-35zM275 439q34 0 48 13.5t14 48.5q0 33 -19 45.5t-61 12.5h-62v-120h80z" />
<glyph unicode="&#xb0;" d="M108 564q0 61 37.5 98.5t98.5 37.5t98.5 -37.5t37.5 -98.5t-37.5 -98t-98.5 -37t-98.5 37t-37.5 98zM142 564q0 -47 28 -75t74 -28q47 0 75.5 28.5t28.5 74.5t-29 75t-75 29t-74 -28.5t-28 -75.5z" />
<glyph unicode="&#xb1;" d="M55 330v34h193v138h36v-138h199v-34h-199v-144h-36v144h-193zM56 114h428v-34h-428v34z" />
<glyph unicode="&#xb4;" horiz-adv-x="833" d="M150 636l192 96l16 -31l-193 -92z" />
<glyph unicode="&#xb5;" d="M90 -250v750h35v-258q0 -132 24 -175.5t105 -43.5q84 0 162 49l2 1v427h35v-500h-35v40l-24 -13.5t-58.5 -22t-81.5 -13.5q-94 0 -129 51v-292h-35z" />
<glyph unicode="&#xb6;" horiz-adv-x="833" d="M518 0v667h-172v-667h-36v350h-7q-79 0 -132.5 48.5t-53.5 125.5t53.5 126.5t132.5 49.5h348v-33h-97v-667h-36z" />
<glyph unicode="&#xb8;" horiz-adv-x="833" d="M478 -107q0 -36 -12.5 -50t-48.5 -14q-12 0 -31 4l2 26q9 -2 28 -2t23.5 7t4.5 29q0 21 -4 26.5t-24 5.5h-24v76h33v-48q31 -1 42 -13.5t11 -46.5z" />
<glyph unicode="&#xba;" horiz-adv-x="526" d="M259 659q58 0 85.5 -32.5t27.5 -102.5q0 -138 -113 -138q-115 0 -115 138q0 135 115 135zM259 418q43 0 61 24.5t18 81.5t-18 80t-61 23t-62 -23.5t-19 -79.5q0 -57 19 -81.5t62 -24.5z" />
<glyph unicode="&#xbb;" horiz-adv-x="833" d="M582 274l-135 106v39l167 -129v-36q-34 -25 -167 -138v41zM375 274l-135 106v39l167 -129v-36q-34 -25 -167 -138v41z" />
<glyph unicode="&#xc0;" horiz-adv-x="604" d="M35 0l215 700h106l213 -698h-36l-67 213h-328l-67 -215h-36zM275 666l-127 -417h308l-127 417h-54zM204 932l192 -96l-15 -27l-193 92z" />
<glyph unicode="&#xc1;" horiz-adv-x="604" d="M35 0l215 700h106l213 -698h-36l-67 213h-328l-67 -215h-36zM275 666l-127 -417h308l-127 417h-54zM208 836l192 96l16 -31l-193 -92z" />
<glyph unicode="&#xc2;" horiz-adv-x="604" d="M35 0l215 700h106l213 -698h-36l-67 213h-328l-67 -215h-36zM275 666l-127 -417h308l-127 417h-54zM166 800l121 132h28l122 -132h-42l-93 98l-94 -98h-42z" />
<glyph unicode="&#xc3;" horiz-adv-x="604" d="M35 0l215 700h106l213 -698h-36l-67 213h-328l-67 -215h-36zM275 666l-127 -417h308l-127 417h-54zM432 902l22 -17q-51 -55 -83 -55t-69.5 27t-59.5 27q-26 0 -69 -41l-25 18q56 54 95 54q33 0 71 -26.5t57 -26.5t61 40z" />
<glyph unicode="&#xc4;" horiz-adv-x="604" d="M35 0l215 700h106l213 -698h-36l-67 213h-328l-67 -215h-36zM275 666l-127 -417h308l-127 417h-54zM199 838v62h35v-62h-35zM369 838v62h35v-62h-35z" />
<glyph unicode="&#xc5;" horiz-adv-x="604" d="M35 0l215 700h106l213 -698h-36l-67 213h-328l-67 -215h-36zM275 666l-127 -417h308l-127 417h-54zM208 848q0 40 27 67t67 27t67 -27t27 -67t-27 -67t-67 -27t-67 27t-27 67zM242 848q0 -26 17.5 -44t43.5 -18q25 0 42.5 18t17.5 44t-17.5 43.5t-42.5 17.5 q-26 0 -43.5 -17.5t-17.5 -43.5z" />
<glyph unicode="&#xc6;" horiz-adv-x="898" d="M429 0v215h-276l-78 -215h-40l251 700h552v-34h-373v-288h313v-34h-313v-310h373v-34h-409zM314 666l-149 -417h264v417h-115z" />
<glyph unicode="&#xc7;" horiz-adv-x="537" d="M489 45l3 -34q-106 -20 -185 -20q-76 0 -125.5 23.5t-76.5 72.5t-37 110t-10 150q0 71 5.5 122t21 99t42.5 77t72 46.5t108 17.5q42 0 88.5 -4.5t71.5 -9.5l25 -5l-3 -35q-101 20 -182 20q-55 0 -94 -16t-61.5 -41.5t-35 -70t-16.5 -89.5t-4 -111t4 -111t17 -88t36 -68 t61.5 -40t92.5 -15q32 0 77.5 5t75.5 10zM341 -107q0 -36 -12.5 -50t-48.5 -14q-12 0 -31 4l2 26q9 -2 28 -2t23.5 7t4.5 29q0 21 -4 26.5t-24 5.5h-24v76h33v-48q31 -1 42 -13.5t11 -46.5z" />
<glyph unicode="&#xc8;" horiz-adv-x="572" d="M103 0v700h409v-34h-373v-289h313v-34h-313v-309h373v-34h-409zM217 932l192 -96l-15 -27l-193 92z" />
<glyph unicode="&#xc9;" horiz-adv-x="572" d="M103 0v700h409v-34h-373v-289h313v-34h-313v-309h373v-34h-409zM223 836l192 96l16 -31l-193 -92z" />
<glyph unicode="&#xca;" horiz-adv-x="572" d="M103 0v700h409v-34h-373v-289h313v-34h-313v-309h373v-34h-409zM172 800l121 132h28l122 -132h-42l-93 98l-94 -98h-42z" />
<glyph unicode="&#xcb;" horiz-adv-x="572" d="M103 0v700h409v-34h-373v-289h313v-34h-313v-309h373v-34h-409zM205 838v62h35v-62h-35zM375 838v62h35v-62h-35z" />
<glyph unicode="&#xcc;" horiz-adv-x="226" d="M95 0v700h36v-700h-36zM25 932l192 -96l-15 -27l-193 92z" />
<glyph unicode="&#xcd;" horiz-adv-x="226" d="M95 0v700h36v-700h-36zM9 836l192 96l16 -31l-193 -92z" />
<glyph unicode="&#xce;" horiz-adv-x="231" d="M97 0v700h36v-700h-36zM-20 800l121 132h28l122 -132h-42l-93 98l-94 -98h-42z" />
<glyph unicode="&#xcf;" horiz-adv-x="226" d="M95 0v700h36v-700h-36zM11 838v62h35v-62h-35zM181 838v62h35v-62h-35z" />
<glyph unicode="&#xd0;" horiz-adv-x="653" d="M26 324v34h280v-34h-280zM363 0h-260v700h260q64 0 110.5 -28t73 -77t38.5 -107.5t12 -127.5q0 -70 -12.5 -131t-38.5 -114t-73 -84t-110 -31zM559 360q0 60 -10 111.5t-31.5 97t-61 71.5t-93.5 26h-224v-632h224q54 0 93.5 29t61 78.5t31.5 104t10 114.5z" />
<glyph unicode="&#xd1;" horiz-adv-x="687" d="M103 0v700h85l333 -666h27v666h36v-700h-85l-334 666h-26v-666h-36zM473 902l22 -17q-51 -55 -83 -55t-69.5 27t-59.5 27q-26 0 -69 -41l-25 18q56 54 95 54q34 0 72 -26.5t56 -26.5t61 40z" />
<glyph unicode="&#xd2;" horiz-adv-x="656" d="M328 25q72 0 117.5 18.5t70 61t33.5 98.5t9 144q0 168 -48.5 248t-181.5 80q-70 0 -116 -21t-70.5 -65.5t-34 -101t-9.5 -140.5q0 -85 9 -140t33.5 -98.5t70.5 -63.5t117 -20zM328 -9q-80 0 -133 22t-82.5 69.5t-41 110t-11.5 154.5q0 184 58 273t210 89t210 -88.5 t58 -273.5q0 -191 -56.5 -273.5t-211.5 -82.5zM240 932l192 -96l-15 -27l-193 92z" />
<glyph unicode="&#xd3;" horiz-adv-x="656" d="M328 25q72 0 117.5 18.5t70 61t33.5 98.5t9 144q0 168 -48.5 248t-181.5 80q-70 0 -116 -21t-70.5 -65.5t-34 -101t-9.5 -140.5q0 -85 9 -140t33.5 -98.5t70.5 -63.5t117 -20zM328 -9q-80 0 -133 22t-82.5 69.5t-41 110t-11.5 154.5q0 184 58 273t210 89t210 -88.5 t58 -273.5q0 -191 -56.5 -273.5t-211.5 -82.5zM224 836l192 96l16 -31l-193 -92z" />
<glyph unicode="&#xd4;" horiz-adv-x="656" d="M328 25q72 0 117.5 18.5t70 61t33.5 98.5t9 144q0 168 -48.5 248t-181.5 80q-70 0 -116 -21t-70.5 -65.5t-34 -101t-9.5 -140.5q0 -85 9 -140t33.5 -98.5t70.5 -63.5t117 -20zM328 -9q-80 0 -133 22t-82.5 69.5t-41 110t-11.5 154.5q0 184 58 273t210 89t210 -88.5 t58 -273.5q0 -191 -56.5 -273.5t-211.5 -82.5zM193 800l121 132h28l122 -132h-42l-93 98l-94 -98h-42z" />
<glyph unicode="&#xd5;" horiz-adv-x="656" d="M328 25q72 0 117.5 18.5t70 61t33.5 98.5t9 144q0 168 -48.5 248t-181.5 80q-70 0 -116 -21t-70.5 -65.5t-34 -101t-9.5 -140.5q0 -85 9 -140t33.5 -98.5t70.5 -63.5t117 -20zM328 -9q-80 0 -133 22t-82.5 69.5t-41 110t-11.5 154.5q0 184 58 273t210 89t210 -88.5 t58 -273.5q0 -191 -56.5 -273.5t-211.5 -82.5zM459 902l22 -17q-51 -55 -83 -55t-69.5 27t-59.5 27q-26 0 -69 -41l-25 18q56 54 95 54q34 0 72 -26.5t56 -26.5t61 40z" />
<glyph unicode="&#xd6;" horiz-adv-x="656" d="M328 25q72 0 117.5 18.5t70 61t33.5 98.5t9 144q0 168 -48.5 248t-181.5 80q-70 0 -116 -21t-70.5 -65.5t-34 -101t-9.5 -140.5q0 -85 9 -140t33.5 -98.5t70.5 -63.5t117 -20zM328 -9q-80 0 -133 22t-82.5 69.5t-41 110t-11.5 154.5q0 184 58 273t210 89t210 -88.5 t58 -273.5q0 -191 -56.5 -273.5t-211.5 -82.5zM226 838v62h35v-62h-35zM396 838v62h35v-62h-35z" />
<glyph unicode="&#xd7;" horiz-adv-x="833" d="M225 482l196 -207l197 207l27 -24l-199 -208l201 -211l-26 -23l-200 208l-199 -208l-26 23l201 211l-199 208z" />
<glyph unicode="&#xd8;" horiz-adv-x="656" d="M103 -98l60 129q-57 38 -80 115t-23 201q0 184 58 273t210 89q82 0 140 -28l52 111l33 -14l-55 -116q54 -42 76 -119t22 -196q0 -191 -56.5 -273.5t-211.5 -82.5q-79 0 -134 23l-58 -125zM98 347q0 -112 17.5 -180t63.5 -103l273 584q-25 12 -55 20q-37 7 -69 7 q-70 0 -116 -21t-70.5 -65.5t-34 -101t-9.5 -140.5zM328 25q72 0 117.5 18.5t70 61t33.5 98.5t9 144q0 210 -76 280l-273 -581q47 -21 119 -21z" />
<glyph unicode="&#xd9;" horiz-adv-x="642" d="M126 196q0 -91 49 -131t141 -40q99 0 149.5 39.5t50.5 131.5v504h36v-504q0 -109 -59.5 -157t-176.5 -48q-110 0 -168 48t-58 157v504h36v-504zM233 932l192 -96l-15 -27l-193 92z" />
<glyph unicode="&#xda;" horiz-adv-x="642" d="M126 196q0 -91 49 -131t141 -40q99 0 149.5 39.5t50.5 131.5v504h36v-504q0 -109 -59.5 -157t-176.5 -48q-110 0 -168 48t-58 157v504h36v-504zM217 836l192 96l16 -31l-193 -92z" />
<glyph unicode="&#xdb;" horiz-adv-x="642" d="M126 196q0 -91 49 -131t141 -40q99 0 149.5 39.5t50.5 131.5v504h36v-504q0 -109 -59.5 -157t-176.5 -48q-110 0 -168 48t-58 157v504h36v-504zM186 800l121 132h28l122 -132h-42l-93 98l-94 -98h-42z" />
<glyph unicode="&#xdc;" horiz-adv-x="642" d="M126 196q0 -91 49 -131t141 -40q99 0 149.5 39.5t50.5 131.5v504h36v-504q0 -109 -59.5 -157t-176.5 -48q-110 0 -168 48t-58 157v504h36v-504zM220 838v62h35v-62h-35zM390 838v62h35v-62h-35z" />
<glyph unicode="&#xdd;" horiz-adv-x="540" d="M289 301v-301h-36v301l-228 399h41l205 -359l202 359h42zM166 836l192 96l16 -31l-193 -92z" />
<glyph unicode="&#xde;" horiz-adv-x="615" d="M358 169q169 0 169 198q0 92 -39.5 134.5t-129.5 42.5h-219v-375h219zM358 135h-219v-135h-36v700h36v-122h219q108 0 157.5 -51t49.5 -160q0 -232 -207 -232z" />
<glyph unicode="&#xdf;" horiz-adv-x="833" d="M249 0h-36v532q0 104 31.5 141t121.5 37q103 0 146.5 -32t43.5 -103q0 -43 -15 -65t-49 -35l-17 -6.5l-14 -5.5l-11.5 -4.5t-9.5 -4t-6.5 -4t-5 -4t-3 -4.5t-2 -5.5t-0.5 -6.5q0 -10 11 -18.5t73 -45.5l33 -19.5l28.5 -17.5l22.5 -14t19 -13t13.5 -12t10.5 -12.5t5 -12 t2 -14.5q0 -71 -9 -116t-34.5 -79.5t-72.5 -49.5t-122 -15l-78 4l4 34q57 -4 74 -4q67 0 108 13t61 45t25.5 68t5.5 100q0 12 -26.5 31t-94.5 58q-67 38 -82 52t-15 38q0 15 3 24.5t12 16.5t15.5 10.5t25.5 10.5t31 12q32 14 39 25t7 46q0 56 -34.5 78.5t-117.5 22.5 q-72 0 -94.5 -29.5t-22.5 -127.5v-519z" />
<glyph unicode="&#xe0;" horiz-adv-x="536" d="M418 353v-287q4 -36 75 -42l-2 -32q-75 0 -103 40q-93 -41 -206 -41q-60 0 -93.5 37.5t-33.5 108.5q0 65 32.5 101t105.5 43l190 20v52q0 64 -27.5 93t-83.5 29q-32 0 -79.5 -4.5t-78.5 -8.5l-31 -4l-3 33q112 18 192 18q146 0 146 -156zM383 268l-186 -18 q-105 -11 -105 -113q0 -54 24.5 -84t66.5 -30q44 0 94 10t78 20l28 10v205zM155 732l192 -96l-15 -27l-193 92z" />
<glyph unicode="&#xe1;" horiz-adv-x="536" d="M418 66v287q0 156 -146 156q-36 0 -84 -4.5t-78 -8.5l-30 -5l3 -33q116 17 189 17q56 0 83.5 -29t27.5 -93v-52l-190 -20q-73 -7 -105.5 -43t-32.5 -101q0 -71 33.5 -108.5t93.5 -37.5q110 0 206 41q28 -40 103 -40l2 32q-71 6 -75 42zM197 250l186 18v-205 q-101 -40 -200 -40q-42 0 -66.5 30t-24.5 84q0 102 105 113zM199 636l192 96l16 -31l-193 -92z" />
<glyph unicode="&#xe2;" horiz-adv-x="536" d="M418 66v287q0 156 -146 156q-36 0 -84 -4.5t-78 -8.5l-30 -5l3 -33q116 17 189 17q56 0 83.5 -29t27.5 -93v-52l-190 -20q-73 -7 -105.5 -43t-32.5 -101q0 -71 33.5 -108.5t93.5 -37.5q110 0 206 41q28 -40 103 -40l2 32q-71 6 -75 42zM197 250l186 18v-205 q-101 -40 -200 -40q-42 0 -66.5 30t-24.5 84q0 102 105 113zM110 600l121 132h28l122 -132h-42l-93 98l-94 -98h-42z" />
<glyph unicode="&#xe3;" horiz-adv-x="536" d="M418 66v287q0 156 -146 156q-36 0 -84 -4.5t-78 -8.5l-30 -5l3 -33q116 17 189 17q56 0 83.5 -29t27.5 -93v-52l-190 -20q-73 -7 -105.5 -43t-32.5 -101q0 -71 33.5 -108.5t93.5 -37.5q110 0 206 41q28 -40 103 -40l2 32q-71 6 -75 42zM197 250l186 18v-205 q-101 -40 -200 -40q-42 0 -66.5 30t-24.5 84q0 102 105 113zM376 702l22 -17q-51 -55 -83 -55t-69.5 27t-59.5 27q-26 0 -69 -41l-25 18q56 54 95 54q33 0 71 -26.5t57 -26.5t61 40z" />
<glyph unicode="&#xe4;" horiz-adv-x="536" d="M418 66v287q0 156 -146 156q-36 0 -84 -4.5t-78 -8.5l-30 -5l3 -33q116 17 189 17q56 0 83.5 -29t27.5 -93v-52l-190 -20q-73 -7 -105.5 -43t-32.5 -101q0 -71 33.5 -108.5t93.5 -37.5q110 0 206 41q28 -40 103 -40l2 32q-71 6 -75 42zM197 250l186 18v-205 q-101 -40 -200 -40q-42 0 -66.5 30t-24.5 84q0 102 105 113zM141 638v62h35v-62h-35zM311 638v62h35v-62h-35z" />
<glyph unicode="&#xe5;" horiz-adv-x="536" d="M418 66v287q0 156 -146 156q-36 0 -84 -4.5t-78 -8.5l-30 -5l3 -33q116 17 189 17q56 0 83.5 -29t27.5 -93v-52l-190 -20q-73 -7 -105.5 -43t-32.5 -101q0 -71 33.5 -108.5t93.5 -37.5q110 0 206 41q28 -40 103 -40l2 32q-71 6 -75 42zM197 250l186 18v-205 q-101 -40 -200 -40q-42 0 -66.5 30t-24.5 84q0 102 105 113zM151 648q0 40 27 67t67 27t67 -27t27 -67t-27 -67t-67 -27q-41 0 -67.5 27t-26.5 67zM185 648q0 -26 17.5 -44t43.5 -18q25 0 42.5 18t17.5 44t-17.5 43.5t-42.5 17.5q-26 0 -43.5 -17.5t-17.5 -43.5z" />
<glyph unicode="&#xe6;" horiz-adv-x="828" d="M570 23q70 0 182 9l2 -32q-112 -9 -185 -9q-98 0 -143 58l-38 -16q-93 -42 -206 -42q-127 0 -127 146q0 80 39 107.5t146 41.5l143 15v52q0 64 -27.5 93t-83.5 29q-74 0 -188 -9l-2 33q110 10 190 10q115 0 139 -96q49 96 172 96q95 0 142.5 -57t47.5 -183v-33h-355 q0 -108 34 -160.5t118 -52.5zM183 23q42 0 97 12t84.5 22t46.5 17q-30 59 -30 194l-184 -18q-55 -5 -80 -32t-25 -81q0 -55 24 -84.5t67 -29.5zM418 268h318q0 113 -36.5 161t-116.5 48q-165 0 -165 -209z" />
<glyph unicode="&#xe7;" horiz-adv-x="437" d="M265 509l120 -10l-2 -32q-80 10 -118 10q-95 0 -131.5 -48t-36.5 -168q0 -135 33 -186.5t135 -51.5l120 9l2 -32q-84 -9 -122 -9q-122 0 -163.5 57.5t-41.5 212.5q0 138 46 193t159 55zM306 -107q0 -36 -12.5 -50t-48.5 -14q-12 0 -31 4l2 26q9 -2 28 -2t23.5 7t4.5 29 q0 21 -4 26.5t-24 5.5h-24v76h33v-48q31 -1 42 -13.5t11 -46.5z" />
<glyph unicode="&#xe8;" horiz-adv-x="497" d="M249 23q70 0 182 9l2 -32q-112 -9 -185 -9q-106 1 -147 64.5t-41 194.5q0 259 202 259q95 0 142.5 -57t47.5 -183v-33h-355q0 -108 34 -160.5t118 -52.5zM97 268h318q0 113 -36.5 161t-116.5 48q-165 0 -165 -209zM147 732l192 -96l-15 -27l-193 92z" />
<glyph unicode="&#xe9;" horiz-adv-x="497" d="M249 23q70 0 182 9l2 -32q-112 -9 -185 -9q-106 1 -147 64.5t-41 194.5q0 259 202 259q95 0 142.5 -57t47.5 -183v-33h-355q0 -108 34 -160.5t118 -52.5zM97 268h318q0 113 -36.5 161t-116.5 48q-165 0 -165 -209zM173 636l192 96l16 -31l-193 -92z" />
<glyph unicode="&#xea;" horiz-adv-x="497" d="M249 23q70 0 182 9l2 -32q-112 -9 -185 -9q-106 1 -147 64.5t-41 194.5q0 259 202 259q95 0 142.5 -57t47.5 -183v-33h-355q0 -108 34 -160.5t118 -52.5zM97 268h318q0 113 -36.5 161t-116.5 48q-165 0 -165 -209zM130 600l121 132h28l122 -132h-42l-93 98l-94 -98h-42z " />
<glyph unicode="&#xeb;" horiz-adv-x="497" d="M249 23q70 0 182 9l2 -32q-112 -9 -185 -9q-106 1 -147 64.5t-41 194.5q0 259 202 259q95 0 142.5 -57t47.5 -183v-33h-355q0 -108 34 -160.5t118 -52.5zM97 268h318q0 113 -36.5 161t-116.5 48q-165 0 -165 -209zM165 638v62h35v-62h-35zM335 638v62h35v-62h-35z" />
<glyph unicode="&#xec;" horiz-adv-x="261" d="M11 732l192 -96l-15 -27l-193 92zM113 0v500h35v-500h-35z" />
<glyph unicode="&#xed;" horiz-adv-x="261" d="M57 636l192 96l16 -31l-193 -92zM113 0v500h35v-500h-35z" />
<glyph unicode="&#xee;" horiz-adv-x="261" d="M113 0v500h35v-500h-35zM-5 600l121 132h28l122 -132h-42l-93 98l-94 -98h-42z" />
<glyph unicode="&#xef;" horiz-adv-x="261" d="M28 638v62h35v-62h-35zM198 638v62h35v-62h-35zM113 0v500h35v-500h-35z" />
<glyph unicode="&#xf1;" horiz-adv-x="574" d="M101 0h35v427q10 6 26.5 14t62.5 22t86 14q81 0 105 -43.5t24 -175.5v-258h35v260q0 148 -32 198.5t-132 50.5q-38 0 -82 -13q-45 -12 -69 -24l-24 -12v40h-35v-500zM429 702l22 -17q-51 -55 -83 -55t-69.5 27t-59.5 27q-26 0 -69 -41l-25 18q56 54 95 54q34 0 72 -26.5 t56 -26.5t61 40z" />
<glyph unicode="&#xf2;" horiz-adv-x="536" d="M265 509q103 0 152 -58t49 -192q0 -147 -41 -207.5t-160 -60.5q-122 0 -163.5 58t-41.5 212q0 138 46.5 193t158.5 55zM265 23q54 0 87.5 13.5t50 46t21.5 71.5t5 105q0 118 -39.5 168t-124.5 50q-97 0 -132.5 -45.5t-35.5 -170.5q0 -70 5.5 -110.5t23.5 -72t51 -43.5 t88 -12zM155 732l192 -96l-15 -27l-193 92z" />
<glyph unicode="&#xf3;" horiz-adv-x="536" d="M265 509q-112 0 -158.5 -55t-46.5 -193q0 -154 41.5 -212t163.5 -58q119 0 160 60.5t41 207.5q0 134 -49 192t-152 58zM265 23q-55 0 -88 12t-51 43.5t-23.5 72t-5.5 110.5q0 125 35.5 170.5t132.5 45.5q85 0 124.5 -50t39.5 -168q0 -66 -5 -105t-21.5 -71.5t-50 -46 t-87.5 -13.5zM179 636l192 96l16 -31l-193 -92z" />
<glyph unicode="&#xf4;" horiz-adv-x="536" d="M265 509q-112 0 -158.5 -55t-46.5 -193q0 -154 41.5 -212t163.5 -58q119 0 160 60.5t41 207.5q0 134 -49 192t-152 58zM265 23q-55 0 -88 12t-51 43.5t-23.5 72t-5.5 110.5q0 125 35.5 170.5t132.5 45.5q85 0 124.5 -50t39.5 -168q0 -66 -5 -105t-21.5 -71.5t-50 -46 t-87.5 -13.5zM128 600l121 132h28l122 -132h-42l-93 98l-94 -98h-42z" />
<glyph unicode="&#xf5;" horiz-adv-x="536" d="M265 509q-112 0 -158.5 -55t-46.5 -193q0 -154 41.5 -212t163.5 -58q119 0 160 60.5t41 207.5q0 134 -49 192t-152 58zM265 23q-55 0 -88 12t-51 43.5t-23.5 72t-5.5 110.5q0 125 35.5 170.5t132.5 45.5q85 0 124.5 -50t39.5 -168q0 -66 -5 -105t-21.5 -71.5t-50 -46 t-87.5 -13.5zM394 702l22 -17q-51 -55 -83 -55t-69.5 27t-59.5 27q-26 0 -69 -41l-25 18q56 54 95 54q33 0 71 -26.5t57 -26.5t61 40z" />
<glyph unicode="&#xf6;" horiz-adv-x="536" d="M265 509q-112 0 -158.5 -55t-46.5 -193q0 -154 41.5 -212t163.5 -58q119 0 160 60.5t41 207.5q0 134 -49 192t-152 58zM265 23q-55 0 -88 12t-51 43.5t-23.5 72t-5.5 110.5q0 125 35.5 170.5t132.5 45.5q85 0 124.5 -50t39.5 -168q0 -66 -5 -105t-21.5 -71.5t-50 -46 t-87.5 -13.5zM161 638v62h35v-62h-35zM331 638v62h35v-62h-35z" />
<glyph unicode="&#xf7;" d="M33 334v36h336v-36h-336zM181 483v80h40v-80h-40zM181 139v80h40v-80h-40z" />
<glyph unicode="&#xf8;" horiz-adv-x="526" d="M108 -94l42 104q-51 23 -70.5 81t-19.5 170q0 138 46.5 193t158.5 55q47 0 83 -12l40 96l30 -11l-40 -98q88 -51 88 -225q0 -147 -41 -207.5t-160 -60.5q-49 0 -85 9l-42 -104zM97 261q0 -98 13 -148t53 -71l173 424q-33 11 -71 11q-97 0 -132.5 -45.5t-35.5 -170.5z M265 23q54 0 87.5 13.5t50 46t21.5 71.5t5 105q0 146 -65 192l-171 -421q28 -7 72 -7z" />
<glyph unicode="&#xf9;" horiz-adv-x="511" d="M418 500h35v-500h-35v40l-24 -13.5t-58.5 -22t-81.5 -13.5q-100 0 -132 50.5t-32 198.5v260h35v-258q0 -132 24 -175.5t105 -43.5q84 0 162 49l2 1v427zM164 732l192 -96l-15 -27l-193 92z" />
<glyph unicode="&#xfa;" horiz-adv-x="511" d="M453 500h-35v-427q-8 -6 -23 -14t-58 -22t-83 -14q-81 0 -105 43.5t-24 175.5v258h-35v-260q0 -148 32 -198.5t132 -50.5q84 1 164 49v-40h35v500zM188 636l192 96l16 -31l-193 -92z" />
<glyph unicode="&#xfb;" horiz-adv-x="511" d="M453 500h-35v-427q-8 -6 -23 -14t-58 -22t-83 -14q-81 0 -105 43.5t-24 175.5v258h-35v-260q0 -148 32 -198.5t132 -50.5q84 1 164 49v-40h35v500zM137 600l121 132h28l122 -132h-42l-93 98l-94 -98h-42z" />
<glyph unicode="&#xfc;" horiz-adv-x="511" d="M453 500h-35v-427q-8 -6 -23 -14t-58 -22t-83 -14q-81 0 -105 43.5t-24 175.5v258h-35v-260q0 -148 32 -198.5t132 -50.5q84 1 164 49v-40h35v500zM170 638v62h35v-62h-35zM340 638v62h35v-62h-35z" />
<glyph unicode="&#xfd;" horiz-adv-x="480" d="M30 500h37l147 -468h41l148 468h37l-167 -531l-62 -199h-37l72 230h-61zM162 636l192 96l16 -31l-193 -92z" />
<glyph unicode="&#xfe;" horiz-adv-x="538" d="M289 23q62 0 100.5 13.5t58.5 45.5t26.5 72t6.5 105q0 119 -26.5 168.5t-106.5 49.5q-40 0 -83 -10t-66 -20l-23 -10v-408q78 -6 113 -6zM348 509q99 0 134.5 -56.5t35.5 -191.5q0 -147 -47 -208.5t-181 -61.5q-54 0 -114 6v-227h-35v960h35v-261q83 40 172 40z" />
<glyph unicode="&#xff;" horiz-adv-x="480" d="M30 500l155 -500h61l-72 -230h37l229 730h-37l-148 -468h-41l-147 468h-37zM137 638v62h35v-62h-35zM307 638v62h35v-62h-35z" />
<glyph unicode="&#x152;" horiz-adv-x="944" d="M884 -1h-398q-84 -8 -158 -8q-80 0 -133 22t-82.5 69.5t-41 109.5t-11.5 153t12 154.5t41.5 113t82.5 73t132 23.5q102 0 157 -9h399v-36h-363v-286h303v-36h-303v-306h363v-37zM328 25q52 0 157 9v629q-140 12 -157 12q-70 0 -116 -21t-70.5 -65.5t-34 -101t-9.5 -140.5 q0 -85 9 -140t33.5 -98.5t70.5 -63.5t117 -20z" />
<glyph unicode="&#x153;" horiz-adv-x="876" d="M618 23q70 0 182 9l2 -32q-112 -9 -185 -9q-130 0 -169 107q-18 -56 -61 -81.5t-122 -25.5q-122 0 -163.5 58t-41.5 212q0 138 46.5 193t158.5 55q146 0 184 -120q44 120 182 120q95 0 142.5 -57t47.5 -183v-33h-355q0 -108 34 -160.5t118 -52.5zM265 23q54 0 87.5 13.5 t50 46t21.5 71.5t5 105q0 118 -39.5 168t-124.5 50q-97 0 -132.5 -45.5t-35.5 -170.5q0 -70 5.5 -110.5t23.5 -72t51 -43.5t88 -12zM466 268h318q0 113 -36.5 161t-116.5 48q-165 0 -165 -209z" />
<glyph unicode="&#x178;" horiz-adv-x="540" d="M289 301v-301h-36v301l-228 399h41l205 -359l202 359h42zM167 838v62h35v-62h-35zM337 838v62h35v-62h-35z" />
<glyph unicode="&#x2c6;" horiz-adv-x="833" d="M275 600l121 132h28l122 -132h-42l-93 98l-94 -98h-42z" />
<glyph unicode="&#x2dc;" horiz-adv-x="833" d="M362 702l22 -17q-51 -55 -83 -55t-69.5 27t-59.5 27q-26 0 -69 -41l-25 18q56 54 95 54q33 0 71 -26.5t57 -26.5t61 40z" />
<glyph unicode="&#x2000;" horiz-adv-x="471" />
<glyph unicode="&#x2001;" horiz-adv-x="942" />
<glyph unicode="&#x2002;" horiz-adv-x="471" />
<glyph unicode="&#x2003;" horiz-adv-x="942" />
<glyph unicode="&#x2004;" horiz-adv-x="314" />
<glyph unicode="&#x2005;" horiz-adv-x="235" />
<glyph unicode="&#x2006;" horiz-adv-x="157" />
<glyph unicode="&#x2007;" horiz-adv-x="157" />
<glyph unicode="&#x2008;" horiz-adv-x="117" />
<glyph unicode="&#x2009;" horiz-adv-x="188" />
<glyph unicode="&#x200a;" horiz-adv-x="52" />
<glyph unicode="&#x2010;" horiz-adv-x="440" d="M60 264v34h320v-34h-320z" />
<glyph unicode="&#x2011;" horiz-adv-x="440" d="M60 264v34h320v-34h-320z" />
<glyph unicode="&#x2018;" horiz-adv-x="170" d="M114 727l-40 -200h-38l49 200h29z" />
<glyph unicode="&#x2019;" horiz-adv-x="170" d="M55 527l40 200h38l-49 -200h-29z" />
<glyph unicode="&#x2022;" d="M247 0v80h40v-80h-40z" />
<glyph unicode="&#x202f;" horiz-adv-x="188" />
<glyph unicode="&#x205f;" horiz-adv-x="235" />
<glyph unicode="&#x20ac;" d="M5 427h64q10 128 64 189t182 61q95 0 175 -19l-3 -35q-91 20 -172 20q-111 0 -155.5 -52t-52.5 -164l311 -1v-33h-313q-1 -20 -1 -62q0 -36 1 -52l313 -1v-33h-312q8 -115 52.5 -167.5t156.5 -52.5q71 0 172 20l3 -34q-96 -20 -175 -20q-128 0 -182.5 61t-63.5 193h-64 v34h62q-1 16 -1 52q0 42 1 62h-62v34z" />
<glyph unicode="&#x2122;" d="M7 590v31h200v-31h-83v-258h-33v258h-84zM242 331v290h50l84 -242l87 242h50v-290h-32v258l-88 -247h-35l-84 247v-258h-32z" />
</font>
</defs>
</svg>
